<?xml version="1.0" encoding="UTF-8" standalone="no"?>
<svg
   xmlns:dc="http://purl.org/dc/elements/1.1/"
   xmlns:cc="http://creativecommons.org/ns#"
   xmlns:rdf="http://www.w3.org/1999/02/22-rdf-syntax-ns#"
   xmlns:svg="http://www.w3.org/2000/svg"
   xmlns="http://www.w3.org/2000/svg"
   xmlns:sodipodi="http://sodipodi.sourceforge.net/DTD/sodipodi-0.dtd"
   xmlns:inkscape="http://www.inkscape.org/namespaces/inkscape"
   version="1.0"
   width="300.000000pt"
   height="240.000000pt"
   viewBox="0 0 300.000000 240.000000"
   preserveAspectRatio="xMidYMid meet"
   id="svg1305"
   sodipodi:docname="blackberry5.svg"
   inkscape:version="1.0.1 (c497b03c, 2020-09-10)">
  <defs
     id="defs1309" />
  <sodipodi:namedview
     pagecolor="#ffffff"
     bordercolor="#666666"
     borderopacity="1"
     objecttolerance="10"
     gridtolerance="10"
     guidetolerance="10"
     inkscape:pageopacity="0"
     inkscape:pageshadow="2"
     inkscape:window-width="1156"
     inkscape:window-height="746"
     id="namedview1307"
     showgrid="false"
     inkscape:zoom="1.0932725"
     inkscape:cx="200"
     inkscape:cy="160"
     inkscape:window-x="0"
     inkscape:window-y="0"
     inkscape:window-maximized="0"
     inkscape:current-layer="svg1305"
     inkscape:document-rotation="0" />
  <metadata
     id="metadata833">
Created by potrace 1.10, written by Peter Selinger 2001-2011
<rdf:RDF>
  <cc:Work
     rdf:about="">
    <dc:format>image/svg+xml</dc:format>
    <dc:type
       rdf:resource="http://purl.org/dc/dcmitype/StillImage" />
  </cc:Work>
</rdf:RDF>
</metadata>
  <g
     transform="matrix(0.1,0,0,-0.1,3,240)"
     fill="#000000"
     stroke="none"
     id="g1303"
     style="fill:#800000;fill-opacity:1">
    <path
       d="m 1743,2098 c -11,-13 -37,-53 -57,-89 -31,-57 -36,-75 -36,-132 0,-63 -1,-66 -22,-60 -13,3 -74,6 -137,7 -98,1 -115,-1 -125,-16 -8,-13 -8,-23 1,-37 10,-16 10,-23 -3,-36 -22,-22 -30,-19 -52,20 -12,20 -36,41 -57,49 -51,22 -193,29 -225,13 -23,-12 -25,-18 -23,-71 l 2,-58 -32,7 c -127,26 -177,15 -241,-56 -46,-51 -55,-72 -36,-84 6,-3 10,-22 10,-40 0,-32 -1,-34 -25,-25 -30,11 -109,-13 -143,-44 -55,-49 -67,-124 -31,-182 l 21,-34 h -21 c -54,0 -130,-116 -118,-179 5,-25 2,-31 -22,-40 -34,-15 -61,-59 -61,-103 0,-18 14,-60 30,-93 25,-52 27,-62 14,-76 -20,-22 -18,-53 7,-102 28,-55 97,-145 121,-158 10,-5 18,-20 18,-34 0,-30 45,-84 85,-101 17,-7 46,-10 64,-8 26,4 39,0 60,-19 57,-53 141,-56 185,-8 16,18 20,18 54,4 42,-17 75,-12 144,22 27,14 59,25 69,25 11,0 30,5 42,12 12,6 58,12 102,12 90,1 162,28 226,84 19,17 47,34 62,37 33,9 52,33 73,97 27,81 63,138 88,138 12,0 31,6 42,14 11,8 36,14 56,13 45,-1 63,13 89,72 34,77 14,152 -55,206 -45,35 -12,43 50,12 70,-35 124,-22 124,30 0,14 -17,45 -41,73 -43,51 -96,177 -104,246 l -4,41 40,-11 c 34,-9 45,-8 72,8 86,51 112,60 187,60 65,1 79,-2 100,-21 28,-27 43,-29 64,-8 39,40 22,98 -43,141 -44,28 -156,45 -210,31 -50,-12 -73,-5 -39,13 14,8 57,36 95,62 37,25 88,54 113,64 25,9 52,22 60,28 37,27 82,47 95,42 8,-3 17,0 21,6 5,7 2,8 -6,3 -9,-5 -11,-4 -6,4 5,7 19,11 32,9 17,-2 29,4 37,18 52,91 50,83 23,95 -15,7 -26,22 -28,37 -5,39 -30,49 -72,30 -46,-22 -192,-116 -286,-183 -41,-30 -91,-65 -110,-78 -19,-13 -41,-31 -48,-39 -12,-16 -90,-54 -95,-47 -9,17 -59,121 -71,151 -8,21 -18,81 -22,135 -9,125 -26,150 -71,101 z m 47,-5 c 10,-189 24,-254 70,-328 11,-17 22,-50 26,-74 7,-42 8,-43 23,-23 9,11 27,25 41,32 30,15 99,64 148,106 47,39 283,194 339,223 55,28 67,27 59,-3 -7,-28 25,-59 51,-49 39,15 -27,-40 -82,-69 -33,-17 -78,-43 -100,-57 -22,-15 -57,-33 -78,-40 -46,-15 -231,-138 -266,-175 -14,-14 -29,-26 -35,-26 -5,0 5,16 24,35 44,45 32,45 -17,0 -21,-19 -44,-35 -51,-35 -7,0 -11,-4 -8,-8 5,-9 -62,-47 -76,-44 -5,1 -8,-4 -8,-12 0,-8 -15,-26 -32,-40 -35,-28 -27,-36 10,-10 15,10 22,11 22,3 0,-8 5,-7 17,2 15,13 15,12 5,-8 -16,-30 -15,-38 3,-23 8,7 12,16 9,21 -3,5 0,9 6,9 6,0 8,5 5,10 -4,6 -16,8 -27,4 -14,-4 -18,-2 -14,5 4,6 14,11 22,11 8,0 14,7 14,15 0,8 8,15 18,15 10,0 29,12 41,26 23,27 44,26 21,-1 -8,-10 -9,-15 -1,-15 6,0 11,5 11,11 0,5 5,7 12,3 7,-4 8,-3 4,4 -4,7 2,13 16,16 183,41 304,24 352,-49 20,-30 20,-40 0,-59 -14,-15 -18,-14 -41,4 -46,36 -94,42 -174,24 -72,-16 -72,-16 -89,6 -14,19 -22,21 -51,15 -25,-5 -31,-4 -23,4 14,15 259,16 297,2 16,-6 35,-18 44,-27 20,-20 28,-11 13,15 -18,36 -82,61 -152,61 -62,0 -264,-44 -283,-61 -5,-6 23,-8 70,-5 79,4 80,4 40,-10 -54,-20 -60,-28 -30,-42 15,-7 24,-8 20,-3 -8,13 41,45 55,36 8,-5 8,-11 -1,-21 -14,-17 -33,-19 -23,-2 4,7 3,8 -5,4 -6,-4 -9,-11 -6,-16 11,-18 -31,-29 -75,-19 -64,14 -69,10 -58,-53 16,-94 66,-211 109,-259 50,-54 52,-58 39,-74 -19,-22 -51,-18 -111,14 l -53,28 -29,-30 c -15,-16 -26,-30 -25,-31 2,-1 19,-10 39,-20 69,-36 94,-136 52,-207 -18,-31 -24,-34 -64,-33 -28,1 -47,-4 -52,-12 -4,-8 -26,-17 -48,-20 -35,-6 -42,-12 -60,-53 -12,-25 -30,-70 -40,-100 -23,-65 -35,-81 -61,-81 -11,0 -38,-15 -60,-34 -80,-69 -210,-110 -273,-86 -19,7 -33,5 -60,-11 -19,-11 -38,-18 -43,-15 -5,3 -41,-10 -79,-30 l -70,-35 -48,19 -48,19 -21,-24 c -46,-53 -132,-45 -177,16 -15,21 -26,28 -33,21 -5,-5 -27,-10 -48,-10 -48,0 -108,49 -108,89 0,17 -10,35 -30,51 -22,18 -29,31 -24,43 6,17 7,16 21,-3 19,-26 39,-26 47,3 11,40 5,53 -10,24 -14,-25 -17,-27 -32,-15 -9,8 -27,13 -39,12 -24,-1 -59,43 -88,112 -20,47 -9,56 60,51 28,-2 44,-2 37,0 -7,3 -18,16 -23,30 -7,19 -15,24 -29,20 -14,-4 -25,3 -38,21 -26,39 -42,79 -42,107 0,36 21,77 37,71 8,-3 11,-1 8,4 -3,5 6,12 21,16 22,6 31,2 46,-16 16,-20 21,-21 28,-10 6,10 4,17 -6,23 -8,5 -11,14 -8,20 4,7 3,9 -1,4 -13,-11 -45,23 -45,48 0,60 52,128 105,140 58,13 58,13 26,52 -35,42 -42,104 -16,139 8,10 15,15 15,10 0,-5 9,-1 20,9 10,9 26,15 34,12 8,-3 22,1 33,8 10,8 29,15 43,16 20,1 21,2 6,6 -24,6 -95,-15 -118,-35 -10,-8 -18,-10 -18,-5 0,16 20,29 73,46 41,14 53,14 86,2 l 38,-13 -1,58 c -1,41 -4,56 -13,53 -43,-17 28,87 75,111 41,20 129,21 158,1 18,-12 29,-13 44,-5 11,6 25,8 31,4 8,-4 9,1 4,17 -19,57 -24,94 -14,104 6,5 52,9 102,9 112,-2 158,-19 178,-66 20,-51 38,-59 66,-29 20,21 74,21 99,0 17,-14 25,-19 96,-57 23,-13 53,-32 66,-43 35,-27 45,-24 18,6 -13,14 -27,25 -31,25 -8,0 -125,71 -125,76 0,2 7,1 15,-2 8,-4 15,-1 15,6 0,8 -8,10 -23,6 -16,-4 -28,1 -40,14 -16,19 -15,19 36,16 57,-4 89,-14 82,-25 -2,-4 6,-7 18,-7 12,1 21,-4 20,-11 -2,-7 3,-10 11,-7 8,3 25,0 38,-7 13,-7 29,-12 36,-11 6,2 12,-3 12,-11 0,-7 16,-29 36,-48 l 36,-34 -7,33 c -9,42 -83,116 -133,134 -40,13 -150,16 -196,4 -23,-6 -29,-3 -33,14 -3,11 -9,20 -14,20 -13,0 -11,-12 6,-34 18,-23 19,-36 4,-36 -5,0 -8,4 -5,9 3,5 -1,14 -9,21 -8,7 -15,20 -15,30 0,17 10,18 113,14 61,-2 129,-8 150,-13 l 38,-9 -6,76 c -6,71 -4,81 22,130 27,53 43,66 52,41 2,-7 -1,-9 -9,-4 -9,5 -11,4 -6,-4 4,-6 1,-22 -7,-34 -7,-12 -17,-40 -20,-62 -9,-52 10,-161 31,-177 14,-11 15,-10 9,6 -17,44 -25,104 -21,156 5,67 11,83 25,74 8,-5 10,-28 6,-71 -6,-63 3,-105 48,-208 7,-16 16,-47 20,-69 5,-30 9,-36 18,-27 21,21 12,104 -17,150 -40,63 -48,88 -56,184 -5,48 -13,94 -20,102 -8,10 -9,19 0,34 10,20 40,29 40,14 z m 720,-193 c 0,-5 -5,-10 -11,-10 -5,0 -7,5 -4,10 3,6 8,10 11,10 2,0 4,-4 4,-10 z M 455,550 c 3,-5 1,-10 -4,-10 -6,0 -11,5 -11,10 0,6 2,10 4,10 3,0 8,-4 11,-10 z"
       id="path835"
       style="fill:#800000;fill-opacity:1" />
    <path
       d="m 1766,2082 c -2,-4 -1,-23 4,-42 l 8,-35 1,43 c 1,41 -3,50 -13,34 z"
       id="path837"
       style="fill:#800000;fill-opacity:1" />
    <path
       d="m 2408,1997 c -32,-18 -58,-35 -58,-40 0,-8 35,10 63,32 9,8 17,11 17,6 0,-4 7,-2 15,5 8,6 19,9 24,5 7,-3 8,0 5,9 -3,9 -7,16 -8,16 0,-1 -27,-15 -58,-33 z"
       id="path839"
       style="fill:#800000;fill-opacity:1" />
    <path
       d="m 2381,1945 c -35,-19 -72,-41 -81,-50 -10,-9 -38,-27 -61,-40 -72,-38 -56,-47 18,-10 37,19 75,37 83,39 32,11 132,73 132,82 -1,19 -29,13 -91,-21 z"
       id="path841"
       style="fill:#800000;fill-opacity:1" />
    <path
       d="m 1781,1954 c 0,-11 3,-14 6,-6 3,7 2,16 -1,19 -3,4 -6,-2 -5,-13 z"
       id="path843"
       style="fill:#800000;fill-opacity:1" />
    <path
       d="m 2490,1954 c 0,-8 5,-12 10,-9 6,3 10,10 10,16 0,5 -4,9 -10,9 -5,0 -10,-7 -10,-16 z"
       id="path845"
       style="fill:#800000;fill-opacity:1" />
    <path
       d="m 1742,1935 c 0,-16 2,-22 5,-12 2,9 2,23 0,30 -3,6 -5,-1 -5,-18 z"
       id="path847"
       style="fill:#800000;fill-opacity:1" />
    <path
       d="m 2315,1940 c -3,-6 1,-7 9,-4 18,7 21,14 7,14 -6,0 -13,-4 -16,-10 z"
       id="path849"
       style="fill:#800000;fill-opacity:1" />
    <path
       d="m 1686,1925 c -3,-9 -5,-29 -5,-43 1,-20 3,-17 9,13 8,43 7,57 -4,30 z"
       id="path851"
       style="fill:#800000;fill-opacity:1" />
    <path
       d="m 2460,1930 c -9,-6 -10,-10 -3,-10 6,0 15,5 18,10 8,12 4,12 -15,0 z"
       id="path853"
       style="fill:#800000;fill-opacity:1" />
    <path
       d="m 2248,1895 c -51,-38 -66,-59 -21,-29 30,19 81,64 73,64 -3,0 -26,-16 -52,-35 z"
       id="path855"
       style="fill:#800000;fill-opacity:1" />
    <path
       d="m 1781,1900 c 0,-8 9,-33 20,-55 10,-22 16,-29 13,-16 -10,37 -33,88 -33,71 z"
       id="path857"
       style="fill:#800000;fill-opacity:1" />
    <path
       d="m 2125,1809 c -66,-54 -74,-62 -52,-54 33,13 16,-3 -50,-47 -90,-59 -98,-64 -89,-49 4,6 24,20 44,30 20,10 46,29 57,41 14,16 3,11 -34,-13 -29,-21 -56,-37 -60,-37 -3,0 -12,-9 -19,-21 -8,-12 -9,-18 -3,-14 18,10 12,-7 -6,-21 -16,-12 -14,-13 10,-4 16,6 49,26 73,46 25,21 48,33 55,28 7,-4 9,-3 5,4 -3,6 -1,14 5,18 6,3 14,2 18,-4 3,-6 22,4 45,24 22,19 35,34 29,34 -5,0 -20,-11 -33,-25 -27,-29 -52,-35 -26,-6 13,14 14,20 4,23 -7,3 9,21 40,42 28,21 52,40 52,42 0,11 -19,0 -65,-37 z"
       id="path859"
       style="fill:#800000;fill-opacity:1" />
    <path
       d="m 1745,1805 c 4,-22 13,-53 21,-69 22,-46 17,-50 -21,-13 -19,19 -35,43 -36,53 0,11 -3,13 -6,7 -2,-7 -12,-13 -21,-13 -12,0 -10,-5 9,-18 80,-52 127,-150 100,-208 -6,-15 -10,-29 -7,-31 7,-7 36,23 36,37 0,6 10,15 23,21 19,9 64,69 51,69 -3,0 -20,-17 -39,-37 -33,-37 -34,-37 -38,-12 -14,70 -28,121 -52,184 -20,55 -25,61 -20,30 z"
       id="path861"
       style="fill:#800000;fill-opacity:1" />
    <path
       d="m 2270,1830 c -9,-6 -10,-10 -3,-10 6,0 15,5 18,10 8,12 4,12 -15,0 z"
       id="path863"
       style="fill:#800000;fill-opacity:1" />
    <path
       d="m 1039,1790 c -31,-20 26,-162 75,-187 38,-20 116,-24 109,-6 -3,7 1,13 10,13 8,0 26,9 41,21 50,40 25,131 -42,148 -51,13 -178,20 -193,11 z m 101,-16 c 19,-4 44,-7 55,-6 27,0 75,-18 75,-29 0,-4 -6,-12 -12,-16 -7,-4 -19,-18 -26,-31 -12,-22 -12,-23 8,-12 11,6 20,17 20,25 0,8 6,15 14,15 8,0 12,-10 11,-27 -3,-42 -4,-43 -24,-43 -11,0 -21,-5 -23,-11 -2,-7 -18,-12 -35,-13 -17,0 -29,-4 -26,-8 2,-5 -3,-8 -12,-8 -10,0 -13,5 -9,11 5,8 -1,10 -19,7 -15,-3 -25,-2 -22,2 2,3 -9,18 -24,33 -27,24 -41,63 -41,109 0,16 5,19 28,14 15,-3 43,-9 62,-12 z"
       id="path865"
       style="fill:#800000;fill-opacity:1" />
    <path
       d="m 1095,1750 c -10,-11 -16,-20 -14,-21 2,0 12,-2 22,-4 14,-3 16,0 7,10 -8,10 -7,14 2,18 7,2 10,7 7,11 -3,3 -14,-3 -24,-14 z"
       id="path867"
       style="fill:#800000;fill-opacity:1" />
    <path
       d="m 1210,1740 c 0,-5 5,-10 10,-10 6,0 10,5 10,10 0,6 -4,10 -10,10 -5,0 -10,-4 -10,-10 z"
       id="path869"
       style="fill:#800000;fill-opacity:1" />
    <path
       d="m 1150,1720 c 13,-23 49,-35 63,-21 14,14 6,21 -37,31 -32,7 -35,6 -26,-10 z"
       id="path871"
       style="fill:#800000;fill-opacity:1" />
    <path
       d="m 1097,1697 c -3,-7 5,-22 18,-31 26,-20 25,-19 57,-6 20,8 18,9 -11,7 -27,-2 -37,3 -47,21 -8,17 -13,19 -17,9 z"
       id="path873"
       style="fill:#800000;fill-opacity:1" />
    <path
       d="m 1120,1702 c 0,-5 7,-15 15,-22 8,-7 15,-8 15,-2 0,5 -7,15 -15,22 -8,7 -15,8 -15,2 z"
       id="path875"
       style="fill:#800000;fill-opacity:1" />
    <path
       d="m 1195,1650 c -3,-6 1,-7 9,-4 18,7 21,14 7,14 -6,0 -13,-4 -16,-10 z"
       id="path877"
       style="fill:#800000;fill-opacity:1" />
    <path
       d="m 2195,1790 c -3,-6 1,-7 9,-4 18,7 21,14 7,14 -6,0 -13,-4 -16,-10 z"
       id="path879"
       style="fill:#800000;fill-opacity:1" />
    <path
       d="m 1840,1760 c 6,-11 13,-20 16,-20 2,0 0,9 -6,20 -6,11 -13,20 -16,20 -2,0 0,-9 6,-20 z"
       id="path881"
       style="fill:#800000;fill-opacity:1" />
    <path
       d="m 1861,1714 c 0,-11 3,-14 6,-6 3,7 2,16 -1,19 -3,4 -6,-2 -5,-13 z"
       id="path883"
       style="fill:#800000;fill-opacity:1" />
    <path
       d="m 1525,1710 c -3,-5 -1,-10 5,-10 6,0 26,-11 44,-25 18,-14 36,-22 39,-19 3,4 23,-11 44,-32 33,-34 38,-37 41,-19 5,24 -62,87 -84,78 -8,-3 -14,-1 -14,4 0,10 -43,33 -60,33 -5,0 -12,-4 -15,-10 z"
       id="path885"
       style="fill:#800000;fill-opacity:1" />
    <path
       d="m 1385,1691 c -3,-5 -1,-12 5,-16 5,-3 10,1 10,9 0,18 -6,21 -15,7 z"
       id="path887"
       style="fill:#800000;fill-opacity:1" />
    <path
       d="m 1355,1680 c -3,-5 -1,-10 4,-10 6,0 11,5 11,10 0,6 -2,10 -4,10 -3,0 -8,-4 -11,-10 z"
       id="path889"
       style="fill:#800000;fill-opacity:1" />
    <path
       d="m 1430,1670 c 14,-11 28,-20 31,-20 4,0 12,-13 19,-29 19,-47 -13,-84 -80,-94 l -25,-3 28,-12 c 21,-9 33,-9 50,1 23,13 48,41 59,68 8,19 -32,83 -62,99 -32,17 -46,11 -20,-10 z"
       id="path891"
       style="fill:#800000;fill-opacity:1" />
    <path
       d="m 855,1675 c -5,-2 -22,-6 -36,-9 -25,-5 -103,-75 -94,-84 2,-2 17,11 33,30 49,54 51,16 3,-44 -10,-12 -10,-18 -3,-18 7,0 12,-13 12,-29 0,-47 95,-120 146,-110 5,1 16,1 24,-1 17,-2 -77,-34 -97,-33 -37,2 -43,4 -43,18 0,20 24,19 44,-1 9,-8 16,-11 16,-5 0,5 -21,24 -46,42 -25,17 -52,45 -60,63 l -15,31 7,-35 c 4,-19 12,-44 19,-55 28,-44 28,-82 1,-118 -14,-19 -26,-41 -26,-50 0,-25 -47,-52 -64,-38 -10,8 -16,9 -21,1 -12,-20 -45,-10 -79,25 -44,43 -57,46 -22,4 14,-17 26,-36 26,-43 0,-9 9,-12 27,-8 l 26,5 -19,-26 c -16,-21 -22,-23 -34,-13 -30,26 -44,29 -24,5 12,-13 19,-31 17,-39 -4,-13 -3,-13 6,0 9,13 11,12 12,-5 1,-11 0,-28 -1,-39 -1,-11 3,-16 9,-11 7,3 10,19 9,33 -3,22 1,26 17,24 29,-5 29,-6 -3,-51 -19,-26 -28,-49 -25,-61 5,-18 -5,-25 -30,-21 -11,2 -56,-51 -57,-66 0,-23 19,-14 26,11 9,36 61,44 89,14 18,-21 43,-65 58,-108 3,-8 6,-10 6,-3 1,7 8,10 16,7 12,-5 13,-10 5,-20 -14,-16 -40,-8 -40,13 0,20 -30,76 -37,69 -4,-3 3,-26 15,-50 19,-37 21,-48 11,-70 -7,-14 -20,-26 -29,-26 -9,0 -21,-5 -27,-11 -9,-9 -21,-8 -46,5 -19,9 -42,16 -51,16 -9,0 -16,5 -16,10 0,6 4,10 10,10 5,0 3,17 -5,39 -7,22 -11,42 -7,46 6,5 -15,24 -28,25 -3,0 -6,-12 -6,-28 -1,-15 1,-21 3,-14 10,26 23,-1 23,-48 0,-52 11,-66 48,-61 12,1 22,-1 22,-6 0,-4 14,-14 30,-21 17,-8 27,-18 24,-23 -3,-6 -11,-5 -20,2 -8,6 -14,8 -14,4 0,-4 -7,-2 -15,5 -9,7 -33,16 -55,20 -34,6 -38,5 -29,-6 7,-8 17,-13 23,-12 6,1 27,-6 46,-14 21,-10 28,-17 18,-17 -10,-1 -18,-9 -18,-18 0,-15 2,-15 9,-4 8,12 14,13 36,3 34,-16 40,-15 26,2 -9,10 -7,13 11,12 27,-1 80,-84 66,-103 -5,-6 -9,-30 -10,-52 0,-37 -2,-40 -20,-30 -18,10 -18,12 -4,28 18,20 21,41 6,41 -5,0 -10,-8 -10,-18 0,-10 -10,-28 -23,-40 -18,-17 -32,-21 -65,-18 -46,5 -56,-9 -17,-24 14,-5 25,-15 25,-22 0,-8 5,-6 11,4 12,22 38,23 45,3 7,-18 31,-20 36,-3 8,22 25,-1 37,-48 13,-51 59,-104 88,-103 12,0 10,4 -9,10 -32,12 -48,53 -53,135 -3,49 0,58 21,77 13,11 24,24 24,28 0,13 -40,21 -53,11 -9,-8 -12,-1 -12,28 0,21 3,36 8,33 4,-2 7,0 7,4 0,5 -9,14 -21,21 -11,7 -18,19 -16,26 9,22 -30,77 -49,69 -15,-6 -15,-7 1,-20 10,-7 16,-15 13,-18 -3,-3 -13,2 -23,11 -17,17 -16,19 6,36 13,10 36,30 50,44 17,17 31,24 39,19 8,-5 11,-4 6,3 -11,17 27,23 84,12 29,-6 56,-12 58,-15 7,-6 4,-84 -4,-107 -5,-16 -1,-19 21,-18 3,0 19,-7 35,-15 26,-14 28,-18 18,-35 -15,-23 -33,-27 -25,-6 6,16 -19,43 -30,32 -3,-3 -1,-6 5,-6 7,0 12,-5 12,-11 0,-6 -7,-8 -17,-4 -15,5 -16,4 -5,-6 6,-7 12,-27 12,-44 1,-28 1,-29 15,-11 17,22 20,21 29,-12 6,-18 4,-21 -11,-19 -37,8 -51,19 -56,47 -5,22 -11,27 -25,23 -30,-8 -37,16 -8,27 14,5 26,14 26,20 0,15 -27,12 -33,-4 -9,-24 -64,-27 -102,-6 -24,13 -32,15 -29,6 3,-8 15,-16 26,-20 17,-4 19,-8 9,-19 -9,-12 -7,-16 10,-20 12,-3 18,-10 14,-16 -3,-6 1,-11 9,-11 21,0 30,19 12,26 -20,8 -20,20 -1,28 10,3 18,-1 22,-12 3,-9 14,-25 24,-35 11,-10 16,-24 12,-34 -5,-12 -2,-15 10,-10 24,9 49,-45 49,-105 -1,-37 -8,-61 -27,-89 -14,-22 -21,-39 -15,-39 6,0 18,13 29,30 10,16 21,27 25,23 10,-10 26,17 26,44 0,12 11,34 24,50 l 24,28 46,-22 c 48,-24 90,-73 68,-81 -6,-2 -12,-8 -12,-13 0,-5 11,-2 25,7 20,13 23,19 14,30 -9,11 -6,14 19,14 38,0 57,21 43,49 -7,12 -7,22 -1,26 5,3 16,-7 24,-23 16,-32 10,-43 -39,-70 -17,-10 -18,-11 -2,-12 9,0 26,9 37,20 17,17 24,18 41,10 11,-6 28,-9 37,-7 12,3 11,5 -5,6 -16,1 -23,7 -23,21 0,12 -7,35 -16,52 -15,29 -15,32 0,43 9,7 16,20 16,29 0,19 35,56 52,56 7,0 0,-12 -15,-26 -16,-14 -26,-28 -24,-31 7,-6 50,19 60,35 4,6 15,12 24,12 13,0 13,2 2,16 -8,10 -15,12 -17,5 -5,-16 -22,-14 -22,2 0,8 11,19 25,25 14,6 24,8 24,4 -3,-20 2,-32 15,-32 9,0 12,8 8,25 -2,15 0,25 8,25 7,0 9,-8 5,-20 -5,-17 -2,-20 24,-20 16,0 32,-4 36,-10 3,-5 12,-7 21,-3 11,4 12,8 3,19 -16,20 -9,24 21,12 l 25,-9 -28,-21 -28,-21 22,-11 c 13,-6 27,-27 33,-51 8,-26 14,-36 19,-27 5,6 6,16 2,21 -3,5 -1,12 5,16 6,4 3,16 -10,32 -11,14 -20,28 -20,32 0,3 28,6 62,6 49,0 62,3 64,17 2,13 -3,15 -29,7 -39,-11 -40,-11 -32,1 3,6 -5,10 -19,10 -32,0 -98,39 -89,53 3,5 1,7 -5,3 -6,-3 -13,-2 -16,3 -4,5 2,12 13,16 13,4 19,15 18,38 0,18 4,41 8,51 7,16 5,18 -8,13 -12,-4 -17,-1 -17,11 0,9 -7,30 -15,46 -10,18 -12,32 -6,36 15,9 9,51 -6,46 -8,-4 -13,3 -13,19 0,18 5,25 20,25 11,0 23,7 26,15 4,8 12,15 19,15 7,0 18,7 25,15 7,9 29,15 53,15 38,0 39,1 24,18 -10,10 -17,22 -17,25 0,13 31,7 36,-7 3,-8 15,-17 27,-21 l 22,-6 -21,-9 c -12,-4 -24,-16 -27,-25 -4,-9 -3,-14 2,-11 12,8 41,-38 41,-64 0,-23 18,-27 26,-6 7,18 -12,55 -40,79 -16,15 -17,18 -3,13 9,-3 17,-1 17,4 0,18 18,11 47,-18 17,-17 41,-29 63,-30 19,-2 39,-8 45,-13 5,-5 19,-9 31,-9 13,0 32,-12 43,-26 12,-15 21,-23 21,-18 -1,25 -73,76 -120,86 -8,2 -18,7 -21,11 -3,5 -15,10 -25,11 -10,2 -19,9 -19,17 0,8 -10,14 -21,15 -30,2 -44,12 -44,34 0,10 -10,26 -22,35 -20,13 -21,17 -8,25 13,8 12,10 -2,10 -10,0 -18,5 -18,10 0,6 4,10 8,10 5,0 17,7 28,15 17,13 16,14 -13,5 -26,-7 -33,-6 -33,5 0,7 -2,20 -6,28 -4,11 3,14 32,11 22,-1 46,4 58,13 20,14 19,15 -22,10 -35,-4 -47,-1 -62,16 -11,11 -20,27 -20,34 0,7 -7,13 -15,13 -11,0 -14,7 -11,24 2,13 1,27 -2,31 -4,4 -7,18 -7,31 -1,17 5,24 17,24 10,0 18,7 18,16 0,8 4,13 9,10 5,-3 11,1 15,9 3,8 1,15 -4,15 -6,0 -10,12 -10,28 0,21 -2,24 -10,12 -5,-8 -10,-26 -10,-40 0,-18 -11,-32 -39,-49 l -39,-24 22,-18 21,-18 -22,-1 c -12,0 -29,3 -38,6 -13,5 -14,9 -3,15 11,7 10,11 -2,19 -8,5 -21,7 -29,5 -8,-3 -18,-1 -21,5 -5,8 -9,6 -13,-4 -4,-10 -1,-16 8,-16 8,0 15,-4 15,-10 0,-11 -11,-13 -34,-4 -9,3 -14,10 -11,14 3,4 -2,13 -10,20 -18,15 -20,34 -2,25 6,-4 3,0 -7,9 -10,8 -24,12 -30,9 -6,-4 -4,2 4,12 8,10 10,16 4,12 -7,-4 -15,0 -18,9 -4,10 -2,13 7,7 6,-4 4,5 -6,20 -9,15 -14,27 -9,27 4,0 8,9 9,20 2,27 -11,25 -26,-3 -10,-19 -9,-32 9,-79 11,-30 18,-63 14,-72 -4,-11 -1,-16 10,-16 9,0 16,5 16,10 0,6 5,10 11,10 6,0 9,-9 6,-19 -5,-21 16,-31 64,-31 14,0 34,-6 45,-14 14,-11 22,-11 32,-3 10,8 16,7 22,-3 10,-16 3,-33 -11,-25 -14,9 -11,-5 6,-21 8,-9 20,-12 26,-9 11,7 38,-22 38,-40 1,-5 -8,1 -18,14 l -19,24 -6,-21 c -4,-12 -4,-27 0,-33 3,-6 8,-30 10,-52 1,-23 7,-43 13,-45 6,-2 11,-11 11,-19 0,-9 6,-13 14,-10 10,4 13,1 9,-9 -3,-8 -13,-13 -22,-12 -9,2 -17,-4 -17,-12 -1,-8 -2,-19 -3,-25 -1,-5 -10,1 -20,14 -17,23 -19,23 -42,7 -31,-21 -52,-20 -74,4 -10,11 -15,20 -11,20 4,0 -3,13 -17,29 -13,16 -30,50 -38,75 -14,46 -32,59 -43,30 -9,-22 -8,-24 8,-18 8,3 16,-4 19,-17 4,-16 3,-19 -6,-10 -18,18 -25,13 -19,-14 3,-18 0,-25 -11,-25 -9,0 -19,5 -22,10 -3,6 -1,10 6,10 8,0 8,4 -1,15 -10,12 -8,21 11,50 13,19 29,33 35,31 7,-3 14,8 16,25 7,43 -10,32 -60,-39 -28,-39 -48,-59 -55,-55 -7,4 -26,8 -44,9 -25,0 -42,11 -73,45 -22,24 -42,55 -46,69 -12,54 -19,63 -32,47 -10,-11 -8,-19 9,-41 14,-18 16,-26 7,-26 -10,0 -9,-3 2,-10 8,-5 10,-10 5,-10 -20,0 -54,31 -49,44 3,7 -2,19 -11,26 -18,15 -21,0 -3,-18 15,-15 3,-16 -24,-1 -20,11 -19,11 8,41 23,23 35,28 57,24 17,-4 26,-2 22,4 -3,6 1,10 10,10 12,0 14,-4 6,-19 -6,-10 -8,-21 -5,-23 3,-3 7,-18 10,-34 7,-37 24,-56 24,-26 0,12 -4,22 -8,22 -9,0 -7,53 2,69 4,5 -3,12 -14,16 -16,5 -20,15 -20,54 0,26 -5,52 -12,59 -9,9 -8,12 8,12 19,1 19,1 -1,16 -11,8 -19,17 -17,19 8,16 -1,25 -25,25 -25,0 -25,-1 -10,-18 10,-10 17,-25 17,-33 -1,-11 -3,-11 -13,2 -36,48 -116,79 -162,64 z m 55,-26 c 0,-6 8,-8 18,-5 12,4 33,-9 65,-39 37,-36 47,-52 47,-78 -1,-27 -8,-37 -46,-60 -25,-17 -51,-26 -61,-23 -8,4 -21,2 -27,-3 -7,-5 -30,0 -62,15 -47,21 -52,27 -58,63 -6,42 15,104 44,128 19,15 80,17 80,2 z m 81,-286 c 45,-27 93,-143 59,-143 -5,0 -10,-8 -10,-17 0,-16 2,-16 11,-3 7,11 8,5 3,-22 -4,-26 -2,-38 5,-38 14,0 2,-25 -29,-57 -26,-29 -50,-30 -50,-2 0,18 -5,20 -41,18 -38,-3 -44,0 -85,46 -51,56 -66,99 -48,134 7,13 10,29 8,36 -6,13 22,28 36,20 5,-3 14,3 19,14 10,17 27,24 79,30 8,0 27,-7 43,-16 z m -171,-3 c 0,-5 -2,-10 -4,-10 -3,0 -8,5 -11,10 -3,6 -1,10 4,10 6,0 11,-4 11,-10 z m 298,-62 c 16,-16 15,-28 -3,-28 -8,0 -15,-4 -15,-10 0,-5 9,-10 20,-10 13,0 20,-7 20,-19 0,-12 9,-20 25,-23 13,-3 22,-2 20,2 -6,10 71,4 112,-9 24,-7 33,-6 37,5 3,8 9,14 14,14 9,0 62,-77 62,-90 0,-10 26,-20 51,-20 17,0 18,-3 7,-20 -17,-26 -63,-24 -63,3 0,10 -7,24 -15,30 -8,7 -16,23 -18,36 -3,32 -9,38 -24,23 -9,-9 -9,-12 0,-12 7,0 12,-7 12,-15 0,-18 31,-85 40,-85 10,0 8,-33 -2,-47 -6,-8 -2,-19 11,-32 12,-12 21,-28 21,-36 0,-18 -37,-38 -56,-31 -18,7 -18,26 0,26 8,0 16,6 19,13 3,8 -7,13 -30,14 -19,1 -31,-2 -28,-8 4,-5 3,-15 -2,-21 -4,-7 -8,-17 -8,-23 -1,-11 -9,-11 -37,0 -21,8 -105,-75 -114,-112 -4,-13 -10,-23 -15,-23 -5,0 -7,-21 -6,-47 l 2,-48 h -57 c -32,0 -58,1 -58,2 0,2 18,12 41,23 31,16 46,33 61,68 12,26 24,48 28,50 4,2 6,11 4,20 -2,9 -1,22 3,27 12,17 70,55 82,55 6,0 20,9 31,20 26,26 8,25 -39,-2 -35,-20 -42,-21 -67,-8 -16,7 -33,14 -39,14 -5,1 -20,21 -33,46 -17,33 -30,46 -47,48 -25,2 -50,-21 -40,-38 4,-6 -17,-10 -62,-10 -40,0 -74,-5 -81,-12 -9,-9 -12,-9 -12,0 0,6 9,16 20,22 11,6 20,20 20,31 0,21 0,21 18,2 9,-10 13,-13 8,-6 -14,22 1,27 28,9 14,-9 31,-16 38,-16 24,1 70,50 79,85 11,40 33,48 23,9 -13,-51 -8,-95 9,-88 10,3 18,-9 25,-38 l 11,-43 -5,40 c -3,22 -10,45 -15,51 -5,6 -5,15 -1,19 4,5 1,5 -5,1 -16,-9 -17,6 -3,20 6,6 11,30 12,55 2,34 -1,43 -12,41 -12,-3 -13,-1 -2,9 17,18 15,34 -3,19 -12,-10 -15,-9 -16,6 -1,11 -3,34 -5,52 -4,34 4,40 24,20 z m -348,-18 c 0,-5 -5,-10 -11,-10 -5,0 -7,5 -4,10 3,6 8,10 11,10 2,0 4,-4 4,-10 z m 15,-67 c 3,-15 22,-45 41,-66 20,-21 33,-41 31,-44 -9,-9 -47,17 -47,33 0,8 -16,24 -35,35 -40,24 -61,54 -45,64 5,3 10,-2 11,-12 0,-14 2,-13 10,5 11,28 24,22 34,-15 z m -65,-5 c 0,-7 -21,-23 -45,-35 -53,-27 -55,-27 -55,-7 0,11 6,13 19,9 14,-4 18,-1 17,11 0,11 9,20 24,25 37,10 40,10 40,-3 z m 365,-18 c 0,-13 -5,-25 -11,-27 -7,-2 -11,8 -10,27 1,35 21,35 21,0 z m -326,-31 c 38,-13 41,-32 4,-23 -47,10 -54,14 -48,24 8,12 5,12 44,-1 z m -43,-44 c 4,-8 14,-15 23,-14 10,0 11,2 4,6 -7,2 -13,9 -13,14 0,11 49,1 70,-15 8,-6 32,-20 53,-30 38,-20 48,-36 23,-36 -8,0 -22,10 -31,23 l -16,22 4,-25 c 2,-14 7,-33 12,-43 4,-10 5,-35 2,-57 -4,-32 -1,-41 17,-53 20,-14 19,-14 -17,-13 -26,1 -36,5 -32,14 3,10 0,10 -16,2 -11,-6 -30,-8 -42,-4 -12,4 -33,8 -47,8 -15,1 -29,10 -36,23 -6,13 -18,31 -27,41 -19,21 -23,52 -6,52 6,0 9,-6 7,-12 -3,-7 4,-22 14,-33 16,-16 18,-17 13,-2 -6,13 -1,17 21,18 l 29,1 -29,7 c -16,3 -31,12 -34,20 -3,10 0,12 13,7 15,-5 16,-4 6,8 -7,9 -10,25 -6,38 6,22 6,22 -9,4 -9,-11 -16,-26 -16,-33 0,-7 -9,-13 -20,-13 -11,0 -20,5 -20,10 0,6 4,10 9,10 6,0 18,13 27,30 16,26 29,35 57,39 4,0 10,-6 13,-14 z m 804,8 c -1,-12 -29,-47 -34,-42 -7,7 13,49 24,49 5,0 10,-3 10,-7 z m -456,-79 c 9,-3 16,-15 16,-26 0,-10 5,-16 10,-13 6,3 10,-1 10,-9 0,-18 -2,-19 -24,-10 -9,3 -13,10 -10,15 3,5 -1,6 -9,3 -14,-5 -31,29 -19,40 7,7 7,7 26,0 z M 918,957 c -23,-32 -34,-24 -24,18 4,17 11,22 26,18 19,-5 19,-6 -2,-36 z m 154,6 c 29,-14 58,-34 65,-42 11,-14 12,-14 13,2 0,20 30,24 30,3 0,-7 -7,-19 -15,-26 -8,-7 -12,-16 -9,-21 3,-5 1,-9 -4,-9 -9,0 -29,-55 -34,-95 -2,-13 -12,-21 -28,-22 -14,-1 -53,-5 -87,-9 -57,-6 -63,-5 -87,19 -19,20 -26,36 -26,67 0,22 5,40 10,40 6,0 10,-6 10,-14 0,-8 7,-16 15,-20 18,-7 18,2 0,34 -21,36 -18,55 11,89 32,39 65,40 136,4 z M 867,928 c -3,-7 -5,-2 -5,12 0,14 2,19 5,13 2,-7 2,-19 0,-25 z m 570,-36 c 31,-38 34,-62 13,-100 -30,-59 -67,-87 -114,-88 -23,-1 -47,-2 -54,-3 -7,-1 -22,-17 -34,-37 -11,-20 -30,-39 -41,-43 -14,-5 -20,-18 -21,-50 -3,-51 -18,-63 -69,-57 -48,5 -54,11 -36,32 13,16 12,16 -8,3 -26,-16 -29,-25 -10,-32 6,-2 9,-8 5,-12 -14,-15 -83,21 -105,54 -29,44 -29,55 4,86 30,27 62,32 81,13 9,-9 12,-8 12,4 0,25 68,11 103,-20 21,-20 27,-22 27,-10 0,9 -9,20 -20,23 -11,3 -20,11 -20,16 0,14 12,11 35,-11 l 22,-20 18,20 c 16,17 16,20 2,20 -27,0 -48,30 -43,61 2,16 0,31 -5,34 -10,7 16,51 36,58 18,7 55,-3 55,-15 0,-5 -6,-8 -12,-6 -18,6 -51,-39 -45,-62 3,-10 0,-21 -5,-22 -6,-2 -3,-10 6,-17 14,-12 16,-12 10,3 -4,12 -1,16 14,16 12,0 23,4 26,9 3,4 -6,6 -19,3 -20,-3 -25,0 -25,16 0,30 27,49 51,34 18,-11 19,-10 13,14 -6,24 -5,25 14,15 11,-6 24,-20 27,-31 8,-26 25,-26 18,0 -6,21 -63,68 -63,52 0,-6 -10,-5 -25,1 -14,7 -25,16 -25,20 0,15 64,36 82,26 13,-7 16,-6 12,4 -8,22 96,21 113,-1 z M 740,875 c 0,-19 -9,-19 -34,0 -19,14 -19,15 7,15 17,0 27,-5 27,-15 z m 70,-5 c 0,-5 -7,-7 -15,-4 -8,4 -15,8 -15,10 0,2 7,4 15,4 8,0 15,-4 15,-10 z m 60,-5 c -7,-8 -17,-12 -22,-9 -6,4 -5,10 3,15 22,14 33,10 19,-6 z m 46,-121 c 24,-16 94,-21 138,-9 18,5 17,4 -4,-9 -14,-9 -37,-15 -52,-16 -18,0 -28,-5 -28,-15 0,-8 -4,-15 -10,-15 -5,0 -10,5 -10,10 0,6 -6,10 -14,10 -8,0 -16,7 -20,15 -3,8 -12,15 -21,15 -8,0 -15,7 -15,15 0,19 5,19 36,-1 z m 518,-52 c -5,-14 -3,-14 10,2 16,19 16,19 16,-1 0,-32 -19,-38 -44,-14 -18,18 -19,23 -6,31 19,12 30,3 24,-18 z m -126,-32 c -7,-11 -18,-20 -25,-20 -7,0 -18,-9 -25,-20 -20,-31 -30,-23 -13,10 15,30 40,49 63,50 10,0 10,-4 0,-20 z m -91,-67 c -4,-3 -2,-12 4,-19 12,-15 3,-37 -12,-29 -13,9 -11,55 3,55 6,0 8,-3 5,-7 z M 740,554 c 0,-8 -4,-12 -10,-9 -5,3 -10,10 -10,16 0,5 5,9 10,9 6,0 10,-7 10,-16 z m -30,-51 c 0,-45 -1,-46 -17,-30 -13,13 -14,20 -5,29 7,7 12,20 12,30 0,10 2,18 5,18 3,0 5,-21 5,-47 z m 251,23 c 14,-10 12,-14 -13,-34 -15,-13 -28,-18 -28,-12 0,6 -4,8 -10,5 -5,-3 -10,-1 -10,4 0,6 5,11 12,11 6,0 4,7 -5,18 -10,10 -17,22 -17,25 0,10 51,-3 71,-17 z m 205,-72 c -5,-13 -9,-15 -18,-6 -7,7 -25,12 -40,12 -38,0 -35,14 5,26 38,12 64,-4 53,-32 z m -516,26 c 0,-5 -4,-10 -10,-10 -5,0 -10,5 -10,10 0,6 5,10 10,10 6,0 10,-4 10,-10 z"
       id="path893"
       style="fill:#800000;fill-opacity:1" />
    <path
       d="m 881,1628 c 24,-23 36,-20 25,7 -3,8 -15,15 -27,15 -22,0 -22,0 2,-22 z"
       id="path895"
       style="fill:#800000;fill-opacity:1" />
    <path
       d="m 832,1600 c -12,-12 -22,-28 -22,-38 1,-12 5,-8 16,11 8,16 23,27 35,27 11,0 17,5 14,10 -9,15 -19,12 -43,-10 z"
       id="path897"
       style="fill:#800000;fill-opacity:1" />
    <path
       d="m 952,1590 c 0,-14 2,-19 5,-12 2,6 2,18 0,25 -3,6 -5,1 -5,-13 z"
       id="path899"
       style="fill:#800000;fill-opacity:1" />
    <path
       d="m 976,1581 c -3,-5 1,-11 9,-14 9,-4 12,-1 8,9 -6,16 -10,17 -17,5 z"
       id="path901"
       style="fill:#800000;fill-opacity:1" />
    <path
       d="m 850,1559 c 0,-11 -4,-18 -9,-14 -5,3 -13,0 -17,-6 -5,-8 -3,-9 5,-5 8,5 14,0 18,-13 3,-12 9,-21 13,-21 5,0 12,-9 15,-20 8,-25 16,-25 49,1 20,15 24,24 16,29 -7,4 -9,13 -5,20 6,9 9,9 16,-1 6,-10 9,-10 9,-2 0,17 -23,29 -28,15 -2,-7 -8,-10 -13,-7 -5,4 -6,-1 -3,-9 7,-18 -34,-32 -49,-17 -8,8 -5,11 11,11 12,0 21,5 20,12 -2,7 7,17 20,23 12,5 22,13 22,18 0,10 -33,-8 -50,-27 -7,-9 -20,-16 -28,-16 -12,0 -11,4 6,16 27,19 28,34 2,34 -14,0 -20,-7 -20,-21 z m 75,-68 c -3,-6 -14,-11 -23,-11 -13,0 -13,2 4,14 21,15 30,14 19,-3 z"
       id="path903"
       style="fill:#800000;fill-opacity:1" />
    <path
       d="m 1006,1545 c -9,-26 -7,-32 5,-12 6,10 9,21 6,23 -2,3 -7,-2 -11,-11 z"
       id="path905"
       style="fill:#800000;fill-opacity:1" />
    <path
       d="m 977,1543 c -4,-3 -7,-11 -7,-17 0,-6 5,-5 12,2 6,6 9,14 7,17 -3,3 -9,2 -12,-2 z"
       id="path907"
       style="fill:#800000;fill-opacity:1" />
    <path
       d="m 803,1510 c -1,-11 2,-20 7,-20 4,0 7,7 6,15 -3,23 -12,26 -13,5 z"
       id="path909"
       style="fill:#800000;fill-opacity:1" />
    <path
       d="m 840,1483 c 5,-2 8,-9 4,-14 -3,-5 0,-9 6,-9 15,0 7,23 -8,26 -7,1 -8,0 -2,-3 z"
       id="path911"
       style="fill:#800000;fill-opacity:1" />
    <path
       d="m 950,1348 c 0,-9 -10,-18 -22,-22 -17,-4 -20,-8 -11,-17 8,-8 17,-6 34,10 18,16 20,24 11,33 -9,9 -12,8 -12,-4 z"
       id="path913"
       style="fill:#800000;fill-opacity:1" />
    <path
       d="m 884,1335 c -17,-13 -16,-14 14,-4 33,11 41,19 19,19 -7,0 -22,-7 -33,-15 z"
       id="path915"
       style="fill:#800000;fill-opacity:1" />
    <path
       d="m 995,1320 c 19,-37 19,-73 0,-110 -20,-38 -46,-52 -87,-45 -41,7 -80,41 -57,50 13,5 13,13 5,50 -6,25 -14,45 -17,45 -16,0 -18,-33 -4,-61 14,-27 13,-33 -7,-30 -19,3 -5,-30 20,-47 54,-39 140,-25 167,27 18,35 -2,151 -26,151 -5,0 -3,-13 6,-30 z"
       id="path917"
       style="fill:#800000;fill-opacity:1" />
    <path
       d="m 968,1303 c -10,-2 -18,-9 -18,-14 0,-5 -7,-9 -15,-9 -8,0 -15,-7 -15,-15 0,-9 6,-12 18,-8 16,5 16,4 -1,-13 -18,-19 -18,-19 -33,0 -8,11 -14,28 -14,39 0,10 -4,16 -9,12 -6,-3 -6,-18 -1,-36 11,-36 9,-51 -5,-61 -5,-4 1,-8 14,-8 21,0 22,2 10,17 -12,14 -12,16 1,11 21,-8 62,26 54,45 -3,10 2,18 15,22 12,3 21,11 21,16 0,5 -1,8 -2,8 -2,-1 -11,-3 -20,-6 z"
       id="path919"
       style="fill:#800000;fill-opacity:1" />
    <path
       d="m 935,1210 c -3,-5 -2,-10 4,-10 5,0 13,5 16,10 3,6 2,10 -4,10 -5,0 -13,-4 -16,-10 z"
       id="path921"
       style="fill:#800000;fill-opacity:1" />
    <path
       d="m 1018,1145 c -20,-26 -23,-39 -8,-30 6,3 10,1 10,-4 0,-6 -7,-11 -16,-11 -8,0 -12,-5 -9,-11 5,-7 16,-2 31,12 26,24 34,49 9,29 -18,-15 -20,1 -3,18 6,6 10,14 7,16 -2,2 -12,-6 -21,-19 z"
       id="path923"
       style="fill:#800000;fill-opacity:1" />
    <path
       d="m 950,1120 c -13,-8 -13,-10 2,-10 9,0 20,5 23,10 8,13 -5,13 -25,0 z"
       id="path925"
       style="fill:#800000;fill-opacity:1" />
    <path
       d="m 1218,1184 c 12,-8 22,-24 22,-35 0,-10 5,-19 10,-19 6,0 10,8 10,18 0,22 -30,52 -51,52 -8,0 -5,-6 9,-16 z"
       id="path927"
       style="fill:#800000;fill-opacity:1" />
    <path
       d="m 1260,1191 c 0,-6 5,-13 10,-16 6,-3 10,1 10,9 0,9 -4,16 -10,16 -5,0 -10,-4 -10,-9 z"
       id="path929"
       style="fill:#800000;fill-opacity:1" />
    <path
       d="m 1298,1158 c -3,-18 -8,-41 -13,-50 -4,-10 -3,-18 3,-18 13,0 33,83 23,93 -5,5 -11,-6 -13,-25 z"
       id="path931"
       style="fill:#800000;fill-opacity:1" />
    <path
       d="m 1180,1170 c -8,-5 -12,-11 -10,-14 3,-2 14,2 24,10 22,15 10,19 -14,4 z"
       id="path933"
       style="fill:#800000;fill-opacity:1" />
    <path
       d="m 1191,1146 c -9,-10 -9,-16 -1,-21 17,-10 37,12 24,25 -8,8 -15,6 -23,-4 z"
       id="path935"
       style="fill:#800000;fill-opacity:1" />
    <path
       d="m 1330,1145 c 0,-9 -9,-35 -20,-58 l -21,-42 26,30 c 21,26 35,85 20,85 -3,0 -5,-7 -5,-15 z"
       id="path937"
       style="fill:#800000;fill-opacity:1" />
    <path
       d="m 1198,1103 c 7,-3 16,-2 19,1 4,3 -2,6 -13,5 -11,0 -14,-3 -6,-6 z"
       id="path939"
       style="fill:#800000;fill-opacity:1" />
    <path
       d="m 1350,1102 c 0,-22 -64,-102 -80,-102 -20,0 -83,-49 -64,-50 24,0 122,62 132,85 6,14 16,25 22,25 5,0 10,11 10,25 0,14 -4,25 -10,25 -5,0 -10,-4 -10,-8 z"
       id="path941"
       style="fill:#800000;fill-opacity:1" />
    <path
       d="m 1173,1083 c 9,-9 20,-13 24,-9 4,4 1,11 -7,16 -25,16 -35,11 -17,-7 z"
       id="path943"
       style="fill:#800000;fill-opacity:1" />
    <path
       d="m 1220,1085 c -11,-13 -10,-14 4,-9 9,3 16,10 16,15 0,13 -6,11 -20,-6 z"
       id="path945"
       style="fill:#800000;fill-opacity:1" />
    <path
       d="m 1260,1061 c -6,-12 -15,-21 -21,-21 -6,0 -7,5 -3,12 4,7 3,8 -5,4 -6,-4 -9,-11 -6,-15 7,-13 -42,-54 -56,-46 -7,5 -10,3 -7,-5 2,-8 9,-15 14,-17 12,-4 110,94 102,103 -4,3 -11,-4 -18,-15 z"
       id="path947"
       style="fill:#800000;fill-opacity:1" />
    <path
       d="m 1150,1039 c 0,-20 8,-23 34,-13 24,9 19,21 -9,26 -19,4 -25,1 -25,-13 z"
       id="path949"
       style="fill:#800000;fill-opacity:1" />
    <path
       d="m 1355,1030 c -3,-5 -1,-10 4,-10 6,0 11,5 11,10 0,6 -2,10 -4,10 -3,0 -8,-4 -11,-10 z"
       id="path951"
       style="fill:#800000;fill-opacity:1" />
    <path
       d="m 767,1086 c 4,-22 3,-27 -7,-21 -10,6 -11,2 -6,-19 5,-21 3,-26 -11,-26 -14,0 -15,-2 -4,-9 11,-7 10,-10 -4,-18 -15,-9 -16,-11 -1,-16 9,-4 15,-3 14,1 -1,4 3,17 10,30 7,12 10,27 7,32 -3,6 -1,10 4,10 6,0 11,9 11,21 0,13 4,18 12,13 7,-4 8,-3 4,5 -4,6 -11,9 -16,6 -4,-3 -11,1 -14,7 -3,7 -2,0 1,-16 z"
       id="path953"
       style="fill:#800000;fill-opacity:1" />
    <path
       d="m 686,1072 c -8,-14 21,-35 39,-28 16,6 21,26 6,26 -5,0 -16,3 -24,6 -8,3 -18,1 -21,-4 z"
       id="path955"
       style="fill:#800000;fill-opacity:1" />
    <path
       d="m 793,1053 c -3,-10 -8,-22 -11,-27 -3,-5 0,-6 6,-2 7,4 12,15 12,24 0,15 2,15 10,2 6,-9 10,-10 10,-3 0,20 -20,25 -27,6 z"
       id="path957"
       style="fill:#800000;fill-opacity:1" />
    <path
       d="m 771,981 c -12,-16 -32,-32 -46,-35 -23,-6 -36,-26 -17,-26 14,0 82,51 82,61 0,6 4,7 10,4 6,-3 7,1 4,9 -8,21 -9,21 -33,-13 z"
       id="path959"
       style="fill:#800000;fill-opacity:1" />
    <path
       d="m 822,989 c -6,-15 -23,-36 -38,-48 -22,-18 -24,-21 -8,-21 21,0 68,64 61,83 -3,7 -9,0 -15,-14 z"
       id="path961"
       style="fill:#800000;fill-opacity:1" />
    <path
       d="m 994,969 c -3,-5 6,-9 20,-9 31,0 34,6 6,13 -11,3 -23,1 -26,-4 z"
       id="path963"
       style="fill:#800000;fill-opacity:1" />
    <path
       d="m 955,943 c -9,-16 -13,-19 -10,-8 3,11 2,16 -2,11 -9,-9 -12,-56 -3,-56 7,0 24,32 34,63 8,26 -1,21 -19,-10 z"
       id="path965"
       style="fill:#800000;fill-opacity:1" />
    <path
       d="m 990,940 c 20,-13 33,-13 25,0 -3,6 -14,10 -23,10 -15,0 -15,-2 -2,-10 z"
       id="path967"
       style="fill:#800000;fill-opacity:1" />
    <path
       d="m 1040,942 c 0,-4 9,-13 20,-20 22,-13 27,-3 8,16 -14,14 -28,16 -28,4 z"
       id="path969"
       style="fill:#800000;fill-opacity:1" />
    <path
       d="m 1094,916 c 4,-15 14,-35 21,-43 13,-13 15,-11 15,11 0,15 -5,25 -12,24 -7,-2 -12,2 -13,9 0,6 -4,15 -9,20 -5,5 -6,-4 -2,-21 z"
       id="path971"
       style="fill:#800000;fill-opacity:1" />
    <path
       d="m 967,903 c -2,-10 -8,-26 -12,-35 -4,-11 -3,-18 5,-18 6,0 8,5 4,11 -4,7 2,7 17,-1 19,-11 24,-10 35,4 6,9 10,26 7,36 -7,25 -49,27 -56,3 z"
       id="path973"
       style="fill:#800000;fill-opacity:1" />
    <path
       d="m 1036,912 c -3,-5 1,-9 9,-9 8,0 12,4 9,9 -3,4 -7,8 -9,8 -2,0 -6,-4 -9,-8 z"
       id="path975"
       style="fill:#800000;fill-opacity:1" />
    <path
       d="m 1043,873 c -9,-26 -34,-53 -50,-53 -7,0 -12,4 -10,9 2,9 -3,11 -24,11 -8,0 -8,-5 1,-15 28,-33 83,-11 94,38 7,30 -1,37 -11,10 z"
       id="path977"
       style="fill:#800000;fill-opacity:1" />
    <path
       d="m 1062,848 c -6,-19 -23,-41 -37,-48 -31,-17 -33,-32 -3,-21 31,11 60,54 56,81 -3,21 -5,19 -16,-12 z"
       id="path979"
       style="fill:#800000;fill-opacity:1" />
    <path
       d="m 1096,853 c -6,-14 -5,-15 5,-6 7,7 10,15 7,18 -3,3 -9,-2 -12,-12 z"
       id="path981"
       style="fill:#800000;fill-opacity:1" />
    <path
       d="m 936,798 c 19,-21 19,-21 0,-14 -16,5 -17,4 -6,-9 13,-16 65,-21 55,-5 -3,5 -13,7 -23,4 -9,-3 -6,2 8,11 l 25,16 -24,-7 c -17,-4 -21,-3 -16,6 5,9 4,11 -3,6 -7,-4 -12,-2 -12,3 0,6 -5,11 -12,11 -6,0 -3,-10 8,-22 z"
       id="path983"
       style="fill:#800000;fill-opacity:1" />
    <path
       d="m 1076,795 c -9,-14 -25,-25 -36,-25 -10,0 -22,-4 -25,-10 -8,-13 -1,-13 40,4 18,8 36,12 38,9 3,-2 8,1 13,8 5,8 3,10 -6,4 -9,-5 -10,-2 -5,14 9,28 1,27 -19,-4 z"
       id="path985"
       style="fill:#800000;fill-opacity:1" />
    <path
       d="m 1386,889 c 5,-8 9,-17 9,-21 0,-3 3,-9 6,-12 4,-4 6,3 5,15 0,12 -7,24 -15,27 -10,3 -11,0 -5,-9 z"
       id="path987"
       style="fill:#800000;fill-opacity:1" />
    <path
       d="m 1270,869 c -12,-8 -10,-9 8,-4 33,10 79,-43 88,-100 6,-46 24,-53 24,-9 0,42 -27,92 -59,108 -35,19 -41,19 -61,5 z"
       id="path989"
       style="fill:#800000;fill-opacity:1" />
    <path
       d="m 1430,851 c 0,-6 4,-13 10,-16 6,-3 7,1 4,9 -7,18 -14,21 -14,7 z"
       id="path991"
       style="fill:#800000;fill-opacity:1" />
    <path
       d="m 1395,823 c 4,-10 10,-28 12,-40 6,-24 23,-32 23,-10 0,19 -24,67 -34,67 -4,0 -5,-8 -1,-17 z"
       id="path993"
       style="fill:#800000;fill-opacity:1" />
    <path
       d="m 1210,810 c -8,-5 -12,-12 -9,-15 4,-3 12,1 19,10 14,17 11,19 -10,5 z"
       id="path995"
       style="fill:#800000;fill-opacity:1" />
    <path
       d="m 1240,775 c -7,-9 -11,-18 -8,-20 9,-10 38,7 38,21 0,18 -14,18 -30,-1 z"
       id="path997"
       style="fill:#800000;fill-opacity:1" />
    <path
       d="m 1293,760 c -6,-17 -22,-34 -35,-39 -12,-6 -16,-10 -8,-10 35,-1 59,12 65,36 9,38 -9,48 -22,13 z"
       id="path999"
       style="fill:#800000;fill-opacity:1" />
    <path
       d="m 1337,743 c -4,-3 -7,-11 -7,-17 0,-6 5,-5 12,2 6,6 9,14 7,17 -3,3 -9,2 -12,-2 z"
       id="path1001"
       style="fill:#800000;fill-opacity:1" />
    <path
       d="m 1073,637 c -1,-12 -5,-32 -8,-44 -3,-13 -1,-23 4,-23 10,0 20,79 11,85 -3,2 -7,-6 -7,-18 z"
       id="path1003"
       style="fill:#800000;fill-opacity:1" />
    <path
       d="m 1105,610 c 0,-27 4,-45 8,-41 11,11 12,70 1,81 -5,5 -9,-11 -9,-40 z"
       id="path1005"
       style="fill:#800000;fill-opacity:1" />
    <path
       d="m 1034,631 c 16,-18 17,-24 6,-34 -9,-8 -11,-9 -6,0 3,6 1,15 -5,18 -18,12 -22,-3 -6,-25 15,-22 15,-22 26,-2 15,29 14,35 -11,51 -23,14 -23,14 -4,-8 z"
       id="path1007"
       style="fill:#800000;fill-opacity:1" />
    <path
       d="m 986,623 c -4,-9 -1,-22 6,-29 11,-11 13,-8 13,16 0,33 -9,39 -19,13 z"
       id="path1009"
       style="fill:#800000;fill-opacity:1" />
    <path
       d="m 1136,599 c -3,-21 -13,-42 -21,-49 -8,-7 -15,-17 -15,-22 0,-6 6,-5 14,2 18,14 39,75 33,93 -2,6 -7,-4 -11,-24 z"
       id="path1011"
       style="fill:#800000;fill-opacity:1" />
    <path
       d="m 1161,600 c -1,-14 -8,-37 -15,-52 -15,-28 -11,-34 10,-20 18,11 25,47 15,73 l -10,24 z"
       id="path1013"
       style="fill:#800000;fill-opacity:1" />
    <path
       d="m 960,591 c 0,-10 39,-45 44,-40 3,2 -6,14 -20,26 -13,12 -24,18 -24,14 z"
       id="path1015"
       style="fill:#800000;fill-opacity:1" />
    <path
       d="m 1310,1670 c 0,-5 7,-10 16,-10 8,0 12,5 9,10 -3,6 -10,10 -16,10 -5,0 -9,-4 -9,-10 z"
       id="path1017"
       style="fill:#800000;fill-opacity:1" />
    <path
       d="m 1492,1660 c 13,-20 28,-27 28,-12 0,10 -22,32 -32,32 -5,0 -3,-9 4,-20 z"
       id="path1019"
       style="fill:#800000;fill-opacity:1" />
    <path
       d="m 1700,1643 c 14,-15 30,-31 36,-35 6,-4 9,-18 7,-31 -5,-26 20,-56 32,-37 4,6 2,16 -3,23 -6,7 -10,14 -9,17 3,10 -54,78 -71,85 -11,4 -9,-2 8,-22 z"
       id="path1021"
       style="fill:#800000;fill-opacity:1" />
    <path
       d="m 1534,1616 c 5,-40 -6,-71 -33,-94 -14,-11 -13,-12 9,-7 14,4 31,14 38,23 17,22 15,74 -4,98 -14,18 -15,17 -10,-20 z"
       id="path1023"
       style="fill:#800000;fill-opacity:1" />
    <path
       d="m 1364,1613 c -9,-33 5,-55 39,-64 33,-9 67,14 67,47 0,30 -18,32 -22,2 -2,-18 -10,-23 -33,-23 -27,0 -30,3 -30,33 0,39 -12,42 -21,5 z"
       id="path1025"
       style="fill:#800000;fill-opacity:1" />
    <path
       d="m 1394,1619 c -9,-16 12,-33 31,-25 14,5 15,9 5,21 -15,18 -26,19 -36,4 z"
       id="path1027"
       style="fill:#800000;fill-opacity:1" />
    <path
       d="m 1598,1604 c 12,-9 22,-22 22,-28 0,-6 7,-24 16,-41 14,-27 14,-31 0,-41 -25,-18 -20,-77 8,-103 21,-20 27,-21 48,-10 12,7 29,20 36,31 17,24 31,23 25,-1 -6,-22 -39,-55 -65,-64 -20,-7 -78,37 -78,59 0,8 -4,14 -10,14 -17,0 -11,-22 16,-57 28,-37 52,-41 108,-18 43,18 45,22 49,95 l 3,56 -38,1 -38,2 13,-27 c 18,-36 11,-61 -19,-68 -55,-14 -70,39 -29,100 21,30 22,38 10,42 -8,4 -15,11 -15,18 0,6 -15,20 -33,31 -41,25 -59,31 -29,9 z"
       id="path1029"
       style="fill:#800000;fill-opacity:1" />
    <path
       d="m 755,1590 c -3,-5 -1,-10 4,-10 6,0 11,5 11,10 0,6 -2,10 -4,10 -3,0 -8,-4 -11,-10 z"
       id="path1031"
       style="fill:#800000;fill-opacity:1" />
    <path
       d="m 1086,1585 c -3,-9 0,-15 9,-15 16,0 20,16 6,24 -5,3 -11,-1 -15,-9 z"
       id="path1033"
       style="fill:#800000;fill-opacity:1" />
    <path
       d="m 1701,1555 c 19,-19 36,-35 40,-35 15,0 -17,50 -39,60 -36,16 -36,12 -1,-25 z"
       id="path1035"
       style="fill:#800000;fill-opacity:1" />
    <path
       d="m 1253,1573 c -7,-3 -13,-12 -13,-20 0,-13 -3,-13 -16,-2 -21,17 -94,12 -116,-8 -22,-19 -24,-41 -3,-23 8,7 31,14 51,17 33,5 53,-1 108,-29 17,-9 17,-8 2,13 -11,17 -13,26 -4,36 13,16 9,22 -9,16 z"
       id="path1037"
       style="fill:#800000;fill-opacity:1" />
    <path
       d="m 1276,1551 c -4,-6 0,-18 8,-27 10,-10 14,-26 11,-42 -3,-15 -2,-20 1,-12 4,8 10,17 13,20 4,3 0,20 -10,39 -10,21 -19,30 -23,22 z"
       id="path1039"
       style="fill:#800000;fill-opacity:1" />
    <path
       d="m 2097,1537 c -4,-10 2,-13 19,-9 33,6 41,22 11,22 -14,0 -27,-6 -30,-13 z"
       id="path1041"
       style="fill:#800000;fill-opacity:1" />
    <path
       d="m 2168,1543 c 7,-3 16,-2 19,1 4,3 -2,6 -13,5 -11,0 -14,-3 -6,-6 z"
       id="path1043"
       style="fill:#800000;fill-opacity:1" />
    <path
       d="m 1176,1520 c 74,-30 51,-140 -25,-124 -20,4 -23,3 -11,-5 8,-6 27,-11 43,-11 15,0 27,-5 27,-11 0,-8 -14,-10 -45,-6 -25,4 -45,3 -45,-2 0,-24 85,-29 109,-7 11,10 21,12 31,6 13,-8 11,-13 -10,-33 -14,-12 -36,-30 -50,-40 -18,-12 -20,-17 -8,-17 24,0 73,45 88,80 10,23 15,28 22,18 5,-8 6,-1 2,17 -4,17 -12,33 -18,37 -6,4 -7,10 -4,14 7,7 -18,64 -28,64 -3,0 -3,-13 1,-30 4,-19 3,-30 -4,-30 -6,0 -11,8 -11,19 0,28 -39,71 -63,70 h -22 z m 68,-124 c -3,-9 -10,-16 -15,-16 -6,0 -5,9 1,21 13,24 24,20 14,-5 z m 36,-1 c 0,-8 -4,-15 -10,-15 -5,0 -7,7 -4,15 4,8 8,15 10,15 2,0 4,-7 4,-15 z"
       id="path1045"
       style="fill:#800000;fill-opacity:1" />
    <path
       d="m 1930,1521 c -17,-5 -21,-9 -13,-14 12,-7 53,7 53,18 0,6 -7,5 -40,-4 z"
       id="path1047"
       style="fill:#800000;fill-opacity:1" />
    <path
       d="m 1682,1508 c -7,-7 -12,-16 -12,-20 0,-15 15,-8 28,12 13,22 3,27 -16,8 z"
       id="path1049"
       style="fill:#800000;fill-opacity:1" />
    <path
       d="m 1591,1484 c -11,-14 -17,-32 -14,-40 6,-17 16,-19 11,-2 -3,7 0,18 6,25 31,35 36,43 27,43 -5,0 -19,-12 -30,-26 z"
       id="path1051"
       style="fill:#800000;fill-opacity:1" />
    <path
       d="m 1132,1488 c -7,-7 -12,-19 -12,-27 1,-13 4,-12 16,4 8,11 23,19 32,17 15,-2 15,-1 2,7 -19,14 -24,13 -38,-1 z"
       id="path1053"
       style="fill:#800000;fill-opacity:1" />
    <path
       d="m 1458,1493 c 6,-2 18,-2 25,0 6,3 1,5 -13,5 -14,0 -19,-2 -12,-5 z"
       id="path1055"
       style="fill:#800000;fill-opacity:1" />
    <path
       d="m 1908,1483 c 7,-3 16,-2 19,1 4,3 -2,6 -13,5 -11,0 -14,-3 -6,-6 z"
       id="path1057"
       style="fill:#800000;fill-opacity:1" />
    <path
       d="m 1190,1473 c 0,-6 -7,-10 -17,-9 -9,0 -19,-9 -23,-25 -7,-23 -5,-25 21,-21 31,5 48,37 30,55 -8,8 -11,8 -11,0 z"
       id="path1059"
       style="fill:#800000;fill-opacity:1" />
    <path
       d="m 1836,1368 c 4,-75 13,-126 24,-150 10,-21 15,-38 11,-38 -12,0 -37,32 -52,67 -11,27 -15,29 -20,15 -12,-33 77,-135 136,-155 13,-5 8,4 -15,25 -19,18 -34,36 -32,40 1,5 -4,21 -12,36 -18,35 -33,131 -18,117 6,-6 13,-27 16,-47 6,-54 15,-75 32,-82 20,-8 10,31 -28,109 -21,42 -30,77 -31,117 -1,32 -6,58 -10,58 -4,0 -5,-51 -1,-112 z"
       id="path1061"
       style="fill:#800000;fill-opacity:1" />
    <path
       d="m 1948,1473 c 7,-3 16,-2 19,1 4,3 -2,6 -13,5 -11,0 -14,-3 -6,-6 z"
       id="path1063"
       style="fill:#800000;fill-opacity:1" />
    <path
       d="m 1667,1464 c -14,-14 -7,-35 11,-32 9,2 17,10 17,17 0,16 -18,25 -28,15 z"
       id="path1065"
       style="fill:#800000;fill-opacity:1" />
    <path
       d="m 1806,1388 c 4,-46 11,-94 15,-108 8,-22 7,13 -4,168 -1,12 -6,22 -10,22 -5,0 -5,-37 -1,-82 z"
       id="path1067"
       style="fill:#800000;fill-opacity:1" />
    <path
       d="m 727,1426 c 15,-13 30,-22 33,-19 6,6 -38,43 -52,43 -5,0 4,-11 19,-24 z"
       id="path1069"
       style="fill:#800000;fill-opacity:1" />
    <path
       d="m 1020,1440 c 0,-5 5,-10 10,-10 6,0 10,5 10,10 0,6 -4,10 -10,10 -5,0 -10,-4 -10,-10 z"
       id="path1071"
       style="fill:#800000;fill-opacity:1" />
    <path
       d="m 675,1430 c -3,-5 -17,-10 -30,-10 -13,0 -31,-7 -40,-17 -12,-11 -19,-13 -24,-5 -4,6 -8,-17 -9,-52 -2,-51 1,-68 18,-89 12,-15 29,-27 38,-26 13,0 12,3 -5,11 -40,19 -55,96 -27,137 13,18 24,22 50,19 23,-3 35,1 39,11 4,9 15,-1 35,-32 34,-54 43,-59 34,-19 -11,45 -65,94 -79,72 z"
       id="path1073"
       style="fill:#800000;fill-opacity:1" />
    <path
       d="m 1117,1421 c -4,-17 -3,-21 5,-13 5,5 8,16 6,23 -3,8 -7,3 -11,-10 z"
       id="path1075"
       style="fill:#800000;fill-opacity:1" />
    <path
       d="m 1323,1424 c -3,-8 -1,-20 6,-27 8,-8 11,-4 11,16 0,30 -7,35 -17,11 z"
       id="path1077"
       style="fill:#800000;fill-opacity:1" />
    <path
       d="m 1872,1405 c -1,-16 5,-43 13,-60 12,-24 14,-25 8,-5 -3,14 -10,41 -14,60 -7,34 -7,34 -7,5 z"
       id="path1079"
       style="fill:#800000;fill-opacity:1" />
    <path
       d="m 1360,1410 c 0,-5 4,-10 9,-10 6,0 13,5 16,10 3,6 -1,10 -9,10 -9,0 -16,-4 -16,-10 z"
       id="path1081"
       style="fill:#800000;fill-opacity:1" />
    <path
       d="m 1409,1411 c 8,-5 10,-14 6,-21 -6,-10 -1,-11 19,-6 17,4 34,2 42,-5 8,-7 17,-9 20,-6 9,9 -58,47 -81,47 -15,0 -17,-2 -6,-9 z"
       id="path1083"
       style="fill:#800000;fill-opacity:1" />
    <path
       d="m 1571,1404 c 0,-11 3,-14 6,-6 3,7 2,16 -1,19 -3,4 -6,-2 -5,-13 z"
       id="path1085"
       style="fill:#800000;fill-opacity:1" />
    <path
       d="m 1375,1390 c -3,-5 1,-10 9,-10 9,0 16,5 16,10 0,6 -4,10 -9,10 -6,0 -13,-4 -16,-10 z"
       id="path1087"
       style="fill:#800000;fill-opacity:1" />
    <path
       d="m 536,1374 c -9,-23 -7,-62 2,-68 5,-3 9,15 9,39 0,49 -2,53 -11,29 z"
       id="path1089"
       style="fill:#800000;fill-opacity:1" />
    <path
       d="m 645,1369 c -20,-9 -20,-9 0,-7 11,2 26,-1 34,-6 9,-6 12,-5 9,4 -6,18 -18,21 -43,9 z"
       id="path1091"
       style="fill:#800000;fill-opacity:1" />
    <path
       d="m 704,1348 c 6,-28 -7,-39 -18,-15 -3,6 -3,2 0,-10 4,-18 -1,-26 -21,-35 -31,-14 -46,-2 -48,36 -1,14 -6,26 -11,26 -11,0 1,-59 15,-77 27,-32 72,-10 97,49 9,22 8,29 -5,40 -15,12 -16,10 -9,-14 z"
       id="path1093"
       style="fill:#800000;fill-opacity:1" />
    <path
       d="m 1777,1363 c -10,-10 -8,-43 2,-43 5,0 12,-8 14,-17 3,-10 4,-1 3,19 -2,40 -8,52 -19,41 z"
       id="path1095"
       style="fill:#800000;fill-opacity:1" />
    <path
       d="m 1366,1345 c -3,-9 -6,-26 -5,-38 1,-14 4,-9 9,13 9,37 7,52 -4,25 z"
       id="path1097"
       style="fill:#800000;fill-opacity:1" />
    <path
       d="m 1464,1342 c 12,-36 -2,-62 -33,-62 -15,0 -32,5 -38,11 -7,7 -12,5 -15,-8 -4,-15 2,-19 30,-21 61,-4 105,56 66,89 -15,12 -16,11 -10,-9 z"
       id="path1099"
       style="fill:#800000;fill-opacity:1" />
    <path
       d="m 635,1340 c -3,-5 -4,-14 0,-20 8,-13 35,-1 35,16 0,16 -26,19 -35,4 z"
       id="path1101"
       style="fill:#800000;fill-opacity:1" />
    <path
       d="m 1425,1326 c -17,-13 -18,-17 -5,-25 10,-7 17,-6 23,5 14,24 3,36 -18,20 z"
       id="path1103"
       style="fill:#800000;fill-opacity:1" />
    <path
       d="m 1158,1308 c 8,-8 17,-8 34,0 22,10 21,11 -11,11 -27,1 -32,-2 -23,-11 z"
       id="path1105"
       style="fill:#800000;fill-opacity:1" />
    <path
       d="m 1900,1300 c 0,-8 5,-22 10,-30 9,-13 10,-13 10,0 0,8 -5,22 -10,30 -9,13 -10,13 -10,0 z"
       id="path1107"
       style="fill:#800000;fill-opacity:1" />
    <path
       d="m 1686,1291 c -4,-5 4,-7 16,-3 11,3 19,1 16,-4 -4,-5 9,-9 28,-10 22,0 34,4 34,13 0,15 -85,19 -94,4 z"
       id="path1109"
       style="fill:#800000;fill-opacity:1" />
    <path
       d="m 1476,1262 c -3,-5 -23,-15 -46,-22 -52,-17 -46,-34 16,-41 45,-5 46,-9 4,-22 -9,-3 -6,-6 8,-6 26,-1 61,34 62,60 0,15 -5,14 -41,-4 -28,-13 -43,-17 -51,-9 -7,7 -1,12 20,17 30,6 66,35 44,35 -6,0 -13,-4 -16,-8 z"
       id="path1111"
       style="fill:#800000;fill-opacity:1" />
    <path
       d="m 1670,1260 c 0,-5 5,-10 10,-10 6,0 10,5 10,10 0,6 -4,10 -10,10 -5,0 -10,-4 -10,-10 z"
       id="path1113"
       style="fill:#800000;fill-opacity:1" />
    <path
       d="m 1730,1266 c 0,-2 7,-7 16,-10 8,-3 12,-2 9,4 -6,10 -25,14 -25,6 z"
       id="path1115"
       style="fill:#800000;fill-opacity:1" />
    <path
       d="m 1709,1247 c 6,-8 7,-18 3,-22 -4,-5 -2,-5 5,-1 6,3 13,-1 16,-11 4,-17 5,-17 12,1 6,13 3,23 -10,32 -24,18 -41,18 -26,1 z"
       id="path1117"
       style="fill:#800000;fill-opacity:1" />
    <path
       d="m 1924,1237 c 3,-10 6,-22 6,-27 0,-4 18,-31 40,-59 46,-57 50,-72 18,-63 -12,3 -17,7 -10,10 17,5 -39,72 -61,72 -13,0 -9,-8 18,-31 19,-17 33,-35 30,-40 -8,-12 31,-30 49,-23 23,9 20,27 -10,55 -14,13 -40,47 -56,74 -17,28 -27,42 -24,32 z"
       id="path1119"
       style="fill:#800000;fill-opacity:1" />
    <path
       d="m 1521,1191 c -7,-12 -7,-22 -2,-26 5,-3 13,4 16,16 9,28 -1,36 -14,10 z"
       id="path1121"
       style="fill:#800000;fill-opacity:1" />
    <path
       d="m 1680,1200 c 0,-5 4,-10 9,-10 6,0 13,5 16,10 3,6 -1,10 -9,10 -9,0 -16,-4 -16,-10 z"
       id="path1123"
       style="fill:#800000;fill-opacity:1" />
    <path
       d="m 1790,1170 c 0,-32 -5,-42 -26,-53 -34,-18 -15,-32 20,-16 29,14 43,58 26,88 -16,30 -20,26 -20,-19 z"
       id="path1125"
       style="fill:#800000;fill-opacity:1" />
    <path
       d="m 1670,1175 c 7,-8 17,-12 22,-9 6,4 5,10 -3,15 -22,14 -33,10 -19,-6 z"
       id="path1127"
       style="fill:#800000;fill-opacity:1" />
    <path
       d="m 495,1171 c -12,-11 -2,-16 30,-17 27,0 32,2 24,12 -10,12 -45,15 -54,5 z"
       id="path1129"
       style="fill:#800000;fill-opacity:1" />
    <path
       d="m 1746,1165 c -3,-8 -17,-15 -32,-15 -22,0 -24,-2 -14,-15 11,-13 15,-13 41,1 16,8 29,21 29,29 0,19 -16,19 -24,0 z"
       id="path1131"
       style="fill:#800000;fill-opacity:1" />
    <path
       d="m 1445,1140 c 3,-5 12,-10 20,-10 8,0 17,5 20,10 4,6 -5,10 -20,10 -15,0 -24,-4 -20,-10 z"
       id="path1133"
       style="fill:#800000;fill-opacity:1" />
    <path
       d="m 489,1128 c -34,-29 -40,-45 -29,-74 11,-28 26,-44 43,-44 12,0 67,63 67,77 0,23 -15,14 -27,-17 -7,-20 -18,-30 -32,-30 -28,0 -45,34 -31,60 11,20 19,24 55,21 17,-2 17,0 5,8 -20,14 -33,14 -51,-1 z"
       id="path1135"
       style="fill:#800000;fill-opacity:1" />
    <path
       d="m 500,1080 c 0,-13 5,-20 13,-17 6,2 12,10 12,17 0,7 -6,15 -12,18 -8,2 -13,-5 -13,-18 z"
       id="path1137"
       style="fill:#800000;fill-opacity:1" />
    <path
       d="m 560,1049 c -6,-11 -26,-29 -43,-39 -18,-11 -28,-20 -23,-20 5,0 3,-7 -4,-15 -22,-27 -5,-16 36,23 51,48 70,72 56,72 -6,0 -16,-9 -22,-21 z"
       id="path1139"
       style="fill:#800000;fill-opacity:1" />
    <path
       d="m 1680,1055 c 8,-11 18,-22 22,-26 4,-3 3,-20 -2,-39 -6,-22 -6,-38 1,-46 7,-9 5,-15 -8,-22 -10,-5 -23,-7 -30,-5 -6,2 -31,-4 -55,-15 -52,-23 -99,-35 -96,-25 2,12 -19,60 -30,67 -5,3 -9,-1 -9,-9 0,-8 4,-15 8,-15 4,0 5,-9 2,-19 -7,-26 30,-45 76,-38 35,6 35,6 16,-11 -11,-9 -26,-30 -33,-47 -11,-26 -8,-25 27,15 22,25 40,50 41,56 1,27 54,31 78,7 16,-16 17,-16 20,0 2,9 8,17 13,17 16,0 10,-16 -16,-38 -14,-12 -25,-27 -25,-33 0,-5 -4,-7 -10,-4 -5,3 -10,2 -10,-3 0,-22 14,-18 45,14 18,19 38,34 44,34 14,0 2,32 -18,46 -13,10 -12,13 7,25 12,8 22,18 22,23 0,4 -7,3 -15,-4 -14,-11 -15,-8 -11,22 4,30 -1,38 -32,63 -23,18 -31,21 -22,10 z"
       id="path1141"
       style="fill:#800000;fill-opacity:1" />
    <path
       d="m 1553,1053 c 4,-3 0,-14 -9,-24 -9,-10 -13,-23 -9,-28 8,-14 52,-14 60,-1 7,11 -25,59 -39,60 -5,0 -6,-3 -3,-7 z"
       id="path1143"
       style="fill:#800000;fill-opacity:1" />
    <path
       d="m 1495,1041 c -10,-17 12,-21 25,-6 10,12 10,15 -3,15 -9,0 -18,-4 -22,-9 z"
       id="path1145"
       style="fill:#800000;fill-opacity:1" />
    <path
       d="m 1467,1013 c -7,-11 61,-123 74,-123 15,0 10,10 -21,50 -16,21 -34,48 -38,60 -5,13 -11,19 -15,13 z"
       id="path1147"
       style="fill:#800000;fill-opacity:1" />
    <path
       d="m 1620,1006 c 0,-19 -30,-36 -65,-36 -31,0 -24,-19 8,-21 17,-1 18,-2 5,-6 -20,-5 -23,-18 -8,-28 15,-9 52,15 46,30 -3,8 3,17 15,20 20,7 26,39 9,50 -5,3 -10,-1 -10,-9 z"
       id="path1149"
       style="fill:#800000;fill-opacity:1" />
    <path
       d="m 1780,970 c -17,-32 -6,-46 13,-17 9,15 13,28 7,32 -5,3 -14,-4 -20,-15 z"
       id="path1151"
       style="fill:#800000;fill-opacity:1" />
    <path
       d="m 578,973 c -23,-6 -23,-16 2,-38 11,-10 21,-32 21,-49 l 2,-31 6,35 c 4,20 3,41 -3,49 -8,10 -7,15 2,18 6,3 10,9 6,14 -5,9 -8,10 -36,2 z"
       id="path1153"
       style="fill:#800000;fill-opacity:1" />
    <path
       d="m 1866,965 c 4,-11 8,-30 8,-42 1,-13 4,-23 9,-23 13,0 7,46 -9,66 -15,19 -16,19 -8,-1 z"
       id="path1155"
       style="fill:#800000;fill-opacity:1" />
    <path
       d="m 1835,960 c 3,-5 -4,-10 -16,-10 -16,0 -20,-5 -16,-20 3,-11 1,-20 -5,-20 -5,0 -6,-5 -3,-11 4,-6 16,2 29,20 13,17 27,27 32,23 4,-4 2,1 -5,11 -14,18 -26,24 -16,7 z"
       id="path1157"
       style="fill:#800000;fill-opacity:1" />
    <path
       d="m 423,913 c 1,-26 6,-51 11,-55 6,-4 5,-13 -3,-22 -7,-8 -10,-19 -7,-25 4,-5 -4,-11 -16,-14 -13,-2 -6,-4 15,-4 26,0 35,3 27,11 -15,15 -12,26 5,20 8,-4 15,-1 15,6 0,6 -4,9 -9,6 -11,-7 -21,28 -21,76 0,20 -4,39 -10,43 -5,3 -8,-14 -7,-42 z"
       id="path1159"
       style="fill:#800000;fill-opacity:1" />
    <path
       d="m 480,934 c 0,-8 5,-12 10,-9 6,4 8,11 5,16 -9,14 -15,11 -15,-7 z"
       id="path1161"
       style="fill:#800000;fill-opacity:1" />
    <path
       d="m 1903,893 c -9,-48 -8,-54 3,-38 12,16 21,95 11,95 -2,0 -8,-26 -14,-57 z"
       id="path1163"
       style="fill:#800000;fill-opacity:1" />
    <path
       d="m 391,921 c -7,-5 -9,-11 -4,-14 5,-3 15,-2 22,2 7,5 9,11 4,14 -5,3 -15,2 -22,-2 z"
       id="path1165"
       style="fill:#800000;fill-opacity:1" />
    <path
       d="m 506,904 c -11,-28 -6,-39 9,-20 8,11 15,23 15,28 0,14 -18,9 -24,-8 z"
       id="path1167"
       style="fill:#800000;fill-opacity:1" />
    <path
       d="m 540,910 c 0,-5 6,-10 14,-10 7,0 16,-9 19,-20 3,-11 1,-20 -4,-20 -5,0 -9,5 -9,10 0,6 -4,10 -10,10 -20,0 -9,-25 15,-37 24,-10 25,-9 25,17 0,16 -5,32 -10,35 -6,4 -8,11 -5,16 4,5 -3,9 -14,9 -12,0 -21,-4 -21,-10 z"
       id="path1169"
       style="fill:#800000;fill-opacity:1" />
    <path
       d="m 1837,913 c -3,-5 -2,-15 2,-22 7,-10 10,-10 16,-1 4,6 3,16 -3,22 -5,5 -12,6 -15,1 z"
       id="path1171"
       style="fill:#800000;fill-opacity:1" />
    <path
       d="m 1769,882 c 5,-9 18,-26 30,-36 18,-16 25,-17 50,-6 16,6 32,18 35,26 6,16 -10,19 -19,4 -10,-16 -40,-12 -68,10 -31,25 -41,25 -28,2 z"
       id="path1173"
       style="fill:#800000;fill-opacity:1" />
    <path
       d="m 346,875 c 4,-8 11,-15 16,-15 6,0 5,6 -2,15 -7,8 -14,15 -16,15 -2,0 -1,-7 2,-15 z"
       id="path1175"
       style="fill:#800000;fill-opacity:1" />
    <path
       d="m 395,880 c -3,-5 -1,-10 4,-10 6,0 11,5 11,10 0,6 -2,10 -4,10 -3,0 -8,-4 -11,-10 z"
       id="path1177"
       style="fill:#800000;fill-opacity:1" />
    <path
       d="m 1647,873 c -3,-5 3,-15 14,-22 18,-11 20,-10 17,5 -3,19 -23,30 -31,17 z"
       id="path1179"
       style="fill:#800000;fill-opacity:1" />
    <path
       d="m 620,834 c -6,-16 -19,-38 -28,-48 -17,-19 -16,-19 10,-2 14,9 29,29 33,43 9,36 -2,41 -15,7 z"
       id="path1181"
       style="fill:#800000;fill-opacity:1" />
    <path
       d="m 1751,833 1,-28 7,25 7,25 8,-22 c 5,-17 15,-23 34,-22 24,0 25,1 7,9 -12,4 -27,15 -34,24 -20,24 -31,20 -30,-11 z"
       id="path1183"
       style="fill:#800000;fill-opacity:1" />
    <path
       d="m 1589,818 c -31,-34 -36,-57 -19,-89 15,-26 34,-24 72,9 24,22 29,33 23,48 -8,18 -8,18 -13,-1 -7,-31 -22,-45 -49,-45 -50,0 -32,59 25,81 25,10 30,29 6,29 -8,0 -28,-15 -45,-32 z"
       id="path1185"
       style="fill:#800000;fill-opacity:1" />
    <path
       d="m 370,830 c 0,-5 7,-7 15,-4 8,4 15,8 15,10 0,2 -7,4 -15,4 -8,0 -15,-4 -15,-10 z"
       id="path1187"
       style="fill:#800000;fill-opacity:1" />
    <path
       d="m 513,833 c 9,-15 46,-23 53,-12 3,5 -1,9 -10,9 -8,0 -22,3 -32,7 -11,4 -15,3 -11,-4 z"
       id="path1189"
       style="fill:#800000;fill-opacity:1" />
    <path
       d="m 775,820 c 3,-5 11,-10 16,-10 6,0 7,5 4,10 -3,6 -11,10 -16,10 -6,0 -7,-4 -4,-10 z"
       id="path1191"
       style="fill:#800000;fill-opacity:1" />
    <path
       d="m 820,819 c 0,-8 7,-23 15,-33 15,-19 15,-19 15,1 0,11 -7,26 -15,33 -12,10 -15,10 -15,-1 z"
       id="path1193"
       style="fill:#800000;fill-opacity:1" />
    <path
       d="m 1517,824 c -4,-4 -7,-17 -7,-28 1,-19 1,-20 11,-3 11,19 8,43 -4,31 z"
       id="path1195"
       style="fill:#800000;fill-opacity:1" />
    <path
       d="m 1720,816 c 0,-9 5,-16 10,-16 6,0 10,4 10,9 0,6 -4,13 -10,16 -5,3 -10,-1 -10,-9 z"
       id="path1197"
       style="fill:#800000;fill-opacity:1" />
    <path
       d="m 1858,803 c 7,-3 16,-2 19,1 4,3 -2,6 -13,5 -11,0 -14,-3 -6,-6 z"
       id="path1199"
       style="fill:#800000;fill-opacity:1" />
    <path
       d="m 700,794 c 0,-3 5,-14 10,-25 16,-28 30,-23 17,6 -11,22 -27,34 -27,19 z"
       id="path1201"
       style="fill:#800000;fill-opacity:1" />
    <path
       d="m 737,793 c -10,-10 -8,-23 4,-23 5,0 7,5 3,12 -5,8 -2,9 10,5 10,-4 15,-3 11,3 -7,12 -19,13 -28,3 z"
       id="path1203"
       style="fill:#800000;fill-opacity:1" />
    <path
       d="m 1695,790 c -3,-6 1,-13 10,-16 21,-9 26,-2 10,13 -9,8 -16,9 -20,3 z"
       id="path1205"
       style="fill:#800000;fill-opacity:1" />
    <path
       d="m 678,777 c -19,-46 64,-123 112,-105 14,5 28,14 32,21 11,17 10,85 -1,92 -5,3 -9,-8 -9,-25 3,-89 -114,-84 -124,5 -2,24 -4,26 -10,12 z"
       id="path1207"
       style="fill:#800000;fill-opacity:1" />
    <path
       d="m 1600,775 c -10,-12 -10,-15 4,-15 9,0 16,7 16,15 0,8 -2,15 -4,15 -2,0 -9,-7 -16,-15 z"
       id="path1209"
       style="fill:#800000;fill-opacity:1" />
    <path
       d="m 763,754 c -28,-31 -28,-34 -3,-34 22,0 34,19 28,44 -2,12 -8,9 -25,-10 z"
       id="path1211"
       style="fill:#800000;fill-opacity:1" />
    <path
       d="m 1506,743 c -6,-14 -5,-15 5,-6 7,7 10,15 7,18 -3,3 -9,-2 -12,-12 z"
       id="path1213"
       style="fill:#800000;fill-opacity:1" />
    <path
       d="m 1630,698 c -19,-17 -27,-28 -17,-24 10,3 23,6 27,6 10,0 34,39 28,45 -2,2 -19,-11 -38,-27 z"
       id="path1215"
       style="fill:#800000;fill-opacity:1" />
    <path
       d="m 375,709 c -4,-6 -5,-12 -2,-15 2,-3 7,2 10,11 7,17 1,20 -8,4 z"
       id="path1217"
       style="fill:#800000;fill-opacity:1" />
    <path
       d="m 423,706 c 15,-12 17,-18 8,-38 l -12,-23 17,23 c 9,12 23,22 30,22 22,0 16,17 -8,24 -41,11 -55,7 -35,-8 z"
       id="path1219"
       style="fill:#800000;fill-opacity:1" />
    <path
       d="m 495,700 c 3,-5 13,-10 21,-10 8,0 14,5 14,10 0,6 -9,10 -21,10 -11,0 -17,-4 -14,-10 z"
       id="path1221"
       style="fill:#800000;fill-opacity:1" />
    <path
       d="m 390,685 c 0,-8 5,-15 10,-15 6,0 10,7 10,15 0,8 -4,15 -10,15 -5,0 -10,-7 -10,-15 z"
       id="path1223"
       style="fill:#800000;fill-opacity:1" />
    <path
       d="m 1535,690 c 3,-5 8,-10 11,-10 2,0 4,5 4,10 0,6 -5,10 -11,10 -5,0 -7,-4 -4,-10 z"
       id="path1225"
       style="fill:#800000;fill-opacity:1" />
    <path
       d="m 504,625 c 0,-30 4,-49 8,-42 10,16 10,84 0,91 -4,2 -8,-20 -8,-49 z"
       id="path1227"
       style="fill:#800000;fill-opacity:1" />
    <path
       d="m 450,652 c 0,-11 9,-27 20,-37 19,-17 19,-17 10,16 -6,19 -10,35 -10,36 0,2 -4,3 -10,3 -5,0 -10,-8 -10,-18 z"
       id="path1229"
       style="fill:#800000;fill-opacity:1" />
    <path
       d="m 560,616 c 0,-30 -4,-66 -10,-80 -11,-30 4,-36 19,-7 12,21 21,110 14,128 -12,30 -23,9 -23,-41 z"
       id="path1231"
       style="fill:#800000;fill-opacity:1" />
    <path
       d="m 530,653 c 0,-4 5,-15 10,-23 8,-13 10,-13 10,2 0,9 -4,20 -10,23 -5,3 -10,3 -10,-2 z"
       id="path1233"
       style="fill:#800000;fill-opacity:1" />
    <path
       d="m 600,626 c 0,-13 -3,-45 -6,-72 l -5,-49 20,24 c 21,23 27,72 15,105 -9,24 -24,19 -24,-8 z"
       id="path1235"
       style="fill:#800000;fill-opacity:1" />
    <path
       d="m 646,635 c -3,-9 -6,-22 -5,-28 0,-7 5,-1 10,12 5,13 8,26 5,28 -2,2 -6,-3 -10,-12 z"
       id="path1237"
       style="fill:#800000;fill-opacity:1" />
    <path
       d="m 416,615 c -3,-9 -2,-13 3,-10 6,3 14,-2 19,-11 5,-9 13,-15 18,-13 5,2 -1,14 -12,27 -18,19 -23,20 -28,7 z"
       id="path1239"
       style="fill:#800000;fill-opacity:1" />
    <path
       d="m 1387,619 c -18,-10 -18,-12 2,-30 15,-15 21,-32 21,-65 0,-28 4,-43 10,-39 13,8 13,66 0,99 -8,23 -7,26 10,26 11,0 20,5 20,10 0,13 -40,12 -63,-1 z"
       id="path1241"
       style="fill:#800000;fill-opacity:1" />
    <path
       d="m 1574,590 c 0,-11 6,-20 13,-20 7,0 13,9 13,20 0,11 -6,20 -13,20 -7,0 -13,-9 -13,-20 z"
       id="path1243"
       style="fill:#800000;fill-opacity:1" />
    <path
       d="m 1445,558 c 8,-50 10,-52 24,-43 15,9 14,58 -1,73 -22,22 -30,12 -23,-30 z"
       id="path1245"
       style="fill:#800000;fill-opacity:1" />
    <path
       d="m 1496,575 c 4,-16 11,-34 16,-40 7,-7 8,-1 3,15 -12,40 -26,59 -19,25 z"
       id="path1247"
       style="fill:#800000;fill-opacity:1" />
    <path
       d="m 1616,583 c -6,-14 -5,-15 5,-6 7,7 10,15 7,18 -3,3 -9,-2 -12,-12 z"
       id="path1249"
       style="fill:#800000;fill-opacity:1" />
    <path
       d="m 1350,580 c 0,-6 -8,-10 -17,-10 -14,0 -13,-3 5,-16 15,-10 21,-22 17,-33 -5,-13 -4,-14 7,-3 10,10 10,16 -1,34 -11,18 -11,20 3,15 9,-4 16,-2 16,2 0,5 -7,11 -15,15 -8,3 -15,1 -15,-4 z"
       id="path1251"
       style="fill:#800000;fill-opacity:1" />
    <path
       d="m 780,550 c 0,-5 5,-10 11,-10 5,0 7,5 4,10 -3,6 -8,10 -11,10 -2,0 -4,-4 -4,-10 z"
       id="path1253"
       style="fill:#800000;fill-opacity:1" />
    <path
       d="m 1278,549 c -26,-15 -22,-48 6,-61 34,-15 51,-6 54,31 2,33 -14,41 -36,19 -18,-18 -15,-28 11,-38 l 22,-9 h -23 c -27,-1 -39,25 -23,50 13,22 12,22 -11,8 z"
       id="path1255"
       style="fill:#800000;fill-opacity:1" />
    <path
       d="m 1590,549 c 0,-5 5,-7 10,-4 6,3 10,8 10,11 0,2 -4,4 -10,4 -5,0 -10,-5 -10,-11 z"
       id="path1257"
       style="fill:#800000;fill-opacity:1" />
    <path
       d="m 773,520 c -13,-5 -23,-14 -23,-20 0,-12 35,3 45,20 7,12 7,12 -22,0 z"
       id="path1259"
       style="fill:#800000;fill-opacity:1" />
    <path
       d="m 860,502 c 6,-13 14,-21 18,-18 3,4 -2,14 -12,24 -18,16 -18,16 -6,-6 z"
       id="path1261"
       style="fill:#800000;fill-opacity:1" />
    <path
       d="m 831,478 c 14,-19 25,-26 27,-19 2,7 -5,21 -16,32 -32,29 -36,23 -11,-13 z"
       id="path1263"
       style="fill:#800000;fill-opacity:1" />
    <path
       d="m 791,493 c 0,-4 4,-17 9,-28 8,-19 9,-19 9,2 1,12 -3,25 -9,28 -5,3 -10,3 -9,-2 z"
       id="path1265"
       style="fill:#800000;fill-opacity:1" />
    <path
       d="m 1377,482 c -5,-22 -56,-35 -94,-25 -18,4 -24,2 -19,-6 4,-6 14,-11 22,-11 8,0 14,-4 14,-10 0,-15 19,-12 36,5 17,17 59,21 49,5 -8,-13 1,-13 26,0 10,6 19,16 19,22 0,7 -5,6 -15,-2 -19,-16 -34,-5 -28,20 3,11 3,20 0,20 -2,0 -7,-8 -10,-18 z"
       id="path1267"
       style="fill:#800000;fill-opacity:1" />
    <path
       d="m 1345,480 c -3,-5 -2,-10 4,-10 5,0 13,5 16,10 3,6 2,10 -4,10 -5,0 -13,-4 -16,-10 z"
       id="path1269"
       style="fill:#800000;fill-opacity:1" />
    <path
       d="m 540,458 c 0,-7 5,-20 10,-28 8,-12 10,-9 10,13 0,15 -4,27 -10,27 -5,0 -10,-6 -10,-12 z"
       id="path1271"
       style="fill:#800000;fill-opacity:1" />
    <path
       d="m 590,460 c 0,-5 5,-10 11,-10 5,0 7,5 4,10 -3,6 -8,10 -11,10 -2,0 -4,-4 -4,-10 z"
       id="path1273"
       style="fill:#800000;fill-opacity:1" />
    <path
       d="m 757,463 c -8,-13 12,-55 23,-48 16,10 12,55 -4,55 -8,0 -17,-3 -19,-7 z"
       id="path1275"
       style="fill:#800000;fill-opacity:1" />
    <path
       d="m 814,428 c -10,-35 -44,-61 -51,-40 -3,6 -10,12 -16,12 -7,-1 -2,-9 11,-20 35,-29 81,-2 82,47 0,34 -15,35 -26,1 z"
       id="path1277"
       style="fill:#800000;fill-opacity:1" />
    <path
       d="m 997,435 c 23,-32 36,-32 21,0 -6,14 -17,25 -25,25 -11,0 -10,-6 4,-25 z"
       id="path1279"
       style="fill:#800000;fill-opacity:1" />
    <path
       d="m 1030,441 c 0,-6 5,-13 11,-17 6,-3 8,-17 5,-30 -8,-30 9,-32 24,-3 9,16 8,25 -6,40 -18,20 -34,25 -34,10 z"
       id="path1281"
       style="fill:#800000;fill-opacity:1" />
    <path
       d="m 648,415 c 2,-14 8,-22 13,-19 5,3 5,14 -1,25 -14,26 -18,24 -12,-6 z"
       id="path1283"
       style="fill:#800000;fill-opacity:1" />
    <path
       d="m 587,423 c -9,-9 -9,-43 1,-43 4,0 7,11 7,25 0,14 0,25 -1,25 0,0 -4,-3 -7,-7 z"
       id="path1285"
       style="fill:#800000;fill-opacity:1" />
    <path
       d="m 960,420 c 0,-5 7,-10 16,-10 8,0 12,5 9,10 -3,6 -10,10 -16,10 -5,0 -9,-4 -9,-10 z"
       id="path1287"
       style="fill:#800000;fill-opacity:1" />
    <path
       d="m 610,409 c 0,-5 5,-7 10,-4 6,3 10,8 10,11 0,2 -4,4 -10,4 -5,0 -10,-5 -10,-11 z"
       id="path1289"
       style="fill:#800000;fill-opacity:1" />
    <path
       d="m 943,396 c 2,-12 18,-26 30,-26 16,0 6,28 -13,33 -11,3 -18,0 -17,-7 z"
       id="path1291"
       style="fill:#800000;fill-opacity:1" />
    <path
       d="m 994,385 c 3,-10 1,-24 -6,-32 -10,-13 -9,-15 7,-12 24,5 28,50 6,57 -10,3 -12,0 -7,-13 z"
       id="path1293"
       style="fill:#800000;fill-opacity:1" />
    <path
       d="m 844,379 c -5,-9 -22,-23 -39,-32 l -30,-16 26,-1 c 29,0 64,31 57,52 -3,9 -7,8 -14,-3 z"
       id="path1295"
       style="fill:#800000;fill-opacity:1" />
    <path
       d="m 7,1433 c -4,-3 -7,-17 -7,-30 0,-26 21,-31 40,-8 18,22 -13,58 -33,38 z m 23,-29 c 0,-8 -4,-12 -10,-9 -5,3 -10,10 -10,16 0,5 5,9 10,9 6,0 10,-7 10,-16 z"
       id="path1297"
       style="fill:#800000;fill-opacity:1" />
    <path
       d="m 146,1333 c -11,-11 -6,-23 9,-23 8,0 15,4 15,9 0,13 -16,22 -24,14 z"
       id="path1299"
       style="fill:#800000;fill-opacity:1" />
    <path
       d="m 105,1169 c -10,-15 3,-25 16,-12 7,7 7,13 1,17 -6,3 -14,1 -17,-5 z"
       id="path1301"
       style="fill:#800000;fill-opacity:1" />
  </g>
</svg>
